<?xml version="1.0" encoding="utf-8"?>
<svg xmlns="http://www.w3.org/2000/svg" xmlns:xlink="http://www.w3.org/1999/xlink" width="600" height="400" viewBox="0 0 2400 1600">
<defs>
  <clipPath id="clip470">
    <rect x="0" y="0" width="2400" height="1600"/>
  </clipPath>
</defs>
<path clip-path="url(#clip470)" d="M0 1600 L2400 1600 L2400 0 L0 0  Z" fill="#ffffff" fill-rule="evenodd" fill-opacity="1"/>
<defs>
  <clipPath id="clip471">
    <rect x="367" y="123" width="1986" height="1301"/>
  </clipPath>
</defs>
<path clip-path="url(#clip470)" d="M367.409 1423.18 L2352.76 1423.18 L2352.76 123.472 L367.409 123.472  Z" fill="#ffffff" fill-rule="evenodd" fill-opacity="1"/>
<polyline clip-path="url(#clip470)" style="stroke:#000000; stroke-linecap:round; stroke-linejoin:round; stroke-width:4; stroke-opacity:1; fill:none" points="367.409,1423.18 2352.76,1423.18 "/>
<polyline clip-path="url(#clip470)" style="stroke:#000000; stroke-linecap:round; stroke-linejoin:round; stroke-width:4; stroke-opacity:1; fill:none" points="367.409,123.472 2352.76,123.472 "/>
<polyline clip-path="url(#clip470)" style="stroke:#000000; stroke-linecap:round; stroke-linejoin:round; stroke-width:4; stroke-opacity:1; fill:none" points="367.409,1423.18 367.409,1404.28 "/>
<polyline clip-path="url(#clip470)" style="stroke:#000000; stroke-linecap:round; stroke-linejoin:round; stroke-width:4; stroke-opacity:1; fill:none" points="863.746,1423.18 863.746,1404.28 "/>
<polyline clip-path="url(#clip470)" style="stroke:#000000; stroke-linecap:round; stroke-linejoin:round; stroke-width:4; stroke-opacity:1; fill:none" points="1360.08,1423.18 1360.08,1404.28 "/>
<polyline clip-path="url(#clip470)" style="stroke:#000000; stroke-linecap:round; stroke-linejoin:round; stroke-width:4; stroke-opacity:1; fill:none" points="1856.42,1423.18 1856.42,1404.28 "/>
<polyline clip-path="url(#clip470)" style="stroke:#000000; stroke-linecap:round; stroke-linejoin:round; stroke-width:4; stroke-opacity:1; fill:none" points="2352.76,1423.18 2352.76,1404.28 "/>
<polyline clip-path="url(#clip470)" style="stroke:#000000; stroke-linecap:round; stroke-linejoin:round; stroke-width:4; stroke-opacity:1; fill:none" points="367.409,123.472 367.409,142.37 "/>
<polyline clip-path="url(#clip470)" style="stroke:#000000; stroke-linecap:round; stroke-linejoin:round; stroke-width:4; stroke-opacity:1; fill:none" points="863.746,123.472 863.746,142.37 "/>
<polyline clip-path="url(#clip470)" style="stroke:#000000; stroke-linecap:round; stroke-linejoin:round; stroke-width:4; stroke-opacity:1; fill:none" points="1360.08,123.472 1360.08,142.37 "/>
<polyline clip-path="url(#clip470)" style="stroke:#000000; stroke-linecap:round; stroke-linejoin:round; stroke-width:4; stroke-opacity:1; fill:none" points="1856.42,123.472 1856.42,142.37 "/>
<polyline clip-path="url(#clip470)" style="stroke:#000000; stroke-linecap:round; stroke-linejoin:round; stroke-width:4; stroke-opacity:1; fill:none" points="2352.76,123.472 2352.76,142.37 "/>
<polyline clip-path="url(#clip470)" style="stroke:#000000; stroke-linecap:round; stroke-linejoin:round; stroke-width:4; stroke-opacity:1; fill:none" points="466.676,1423.18 466.676,1413.73 "/>
<polyline clip-path="url(#clip470)" style="stroke:#000000; stroke-linecap:round; stroke-linejoin:round; stroke-width:4; stroke-opacity:1; fill:none" points="565.944,1423.18 565.944,1413.73 "/>
<polyline clip-path="url(#clip470)" style="stroke:#000000; stroke-linecap:round; stroke-linejoin:round; stroke-width:4; stroke-opacity:1; fill:none" points="665.211,1423.18 665.211,1413.73 "/>
<polyline clip-path="url(#clip470)" style="stroke:#000000; stroke-linecap:round; stroke-linejoin:round; stroke-width:4; stroke-opacity:1; fill:none" points="764.478,1423.18 764.478,1413.73 "/>
<polyline clip-path="url(#clip470)" style="stroke:#000000; stroke-linecap:round; stroke-linejoin:round; stroke-width:4; stroke-opacity:1; fill:none" points="963.013,1423.18 963.013,1413.73 "/>
<polyline clip-path="url(#clip470)" style="stroke:#000000; stroke-linecap:round; stroke-linejoin:round; stroke-width:4; stroke-opacity:1; fill:none" points="1062.28,1423.18 1062.28,1413.73 "/>
<polyline clip-path="url(#clip470)" style="stroke:#000000; stroke-linecap:round; stroke-linejoin:round; stroke-width:4; stroke-opacity:1; fill:none" points="1161.55,1423.18 1161.55,1413.73 "/>
<polyline clip-path="url(#clip470)" style="stroke:#000000; stroke-linecap:round; stroke-linejoin:round; stroke-width:4; stroke-opacity:1; fill:none" points="1260.82,1423.18 1260.82,1413.73 "/>
<polyline clip-path="url(#clip470)" style="stroke:#000000; stroke-linecap:round; stroke-linejoin:round; stroke-width:4; stroke-opacity:1; fill:none" points="1459.35,1423.18 1459.35,1413.73 "/>
<polyline clip-path="url(#clip470)" style="stroke:#000000; stroke-linecap:round; stroke-linejoin:round; stroke-width:4; stroke-opacity:1; fill:none" points="1558.62,1423.18 1558.62,1413.73 "/>
<polyline clip-path="url(#clip470)" style="stroke:#000000; stroke-linecap:round; stroke-linejoin:round; stroke-width:4; stroke-opacity:1; fill:none" points="1657.88,1423.18 1657.88,1413.73 "/>
<polyline clip-path="url(#clip470)" style="stroke:#000000; stroke-linecap:round; stroke-linejoin:round; stroke-width:4; stroke-opacity:1; fill:none" points="1757.15,1423.18 1757.15,1413.73 "/>
<polyline clip-path="url(#clip470)" style="stroke:#000000; stroke-linecap:round; stroke-linejoin:round; stroke-width:4; stroke-opacity:1; fill:none" points="1955.69,1423.18 1955.69,1413.73 "/>
<polyline clip-path="url(#clip470)" style="stroke:#000000; stroke-linecap:round; stroke-linejoin:round; stroke-width:4; stroke-opacity:1; fill:none" points="2054.95,1423.18 2054.95,1413.73 "/>
<polyline clip-path="url(#clip470)" style="stroke:#000000; stroke-linecap:round; stroke-linejoin:round; stroke-width:4; stroke-opacity:1; fill:none" points="2154.22,1423.18 2154.22,1413.73 "/>
<polyline clip-path="url(#clip470)" style="stroke:#000000; stroke-linecap:round; stroke-linejoin:round; stroke-width:4; stroke-opacity:1; fill:none" points="2253.49,1423.18 2253.49,1413.73 "/>
<polyline clip-path="url(#clip470)" style="stroke:#000000; stroke-linecap:round; stroke-linejoin:round; stroke-width:4; stroke-opacity:1; fill:none" points="466.676,123.472 466.676,132.921 "/>
<polyline clip-path="url(#clip470)" style="stroke:#000000; stroke-linecap:round; stroke-linejoin:round; stroke-width:4; stroke-opacity:1; fill:none" points="565.944,123.472 565.944,132.921 "/>
<polyline clip-path="url(#clip470)" style="stroke:#000000; stroke-linecap:round; stroke-linejoin:round; stroke-width:4; stroke-opacity:1; fill:none" points="665.211,123.472 665.211,132.921 "/>
<polyline clip-path="url(#clip470)" style="stroke:#000000; stroke-linecap:round; stroke-linejoin:round; stroke-width:4; stroke-opacity:1; fill:none" points="764.478,123.472 764.478,132.921 "/>
<polyline clip-path="url(#clip470)" style="stroke:#000000; stroke-linecap:round; stroke-linejoin:round; stroke-width:4; stroke-opacity:1; fill:none" points="963.013,123.472 963.013,132.921 "/>
<polyline clip-path="url(#clip470)" style="stroke:#000000; stroke-linecap:round; stroke-linejoin:round; stroke-width:4; stroke-opacity:1; fill:none" points="1062.28,123.472 1062.28,132.921 "/>
<polyline clip-path="url(#clip470)" style="stroke:#000000; stroke-linecap:round; stroke-linejoin:round; stroke-width:4; stroke-opacity:1; fill:none" points="1161.55,123.472 1161.55,132.921 "/>
<polyline clip-path="url(#clip470)" style="stroke:#000000; stroke-linecap:round; stroke-linejoin:round; stroke-width:4; stroke-opacity:1; fill:none" points="1260.82,123.472 1260.82,132.921 "/>
<polyline clip-path="url(#clip470)" style="stroke:#000000; stroke-linecap:round; stroke-linejoin:round; stroke-width:4; stroke-opacity:1; fill:none" points="1459.35,123.472 1459.35,132.921 "/>
<polyline clip-path="url(#clip470)" style="stroke:#000000; stroke-linecap:round; stroke-linejoin:round; stroke-width:4; stroke-opacity:1; fill:none" points="1558.62,123.472 1558.62,132.921 "/>
<polyline clip-path="url(#clip470)" style="stroke:#000000; stroke-linecap:round; stroke-linejoin:round; stroke-width:4; stroke-opacity:1; fill:none" points="1657.88,123.472 1657.88,132.921 "/>
<polyline clip-path="url(#clip470)" style="stroke:#000000; stroke-linecap:round; stroke-linejoin:round; stroke-width:4; stroke-opacity:1; fill:none" points="1757.15,123.472 1757.15,132.921 "/>
<polyline clip-path="url(#clip470)" style="stroke:#000000; stroke-linecap:round; stroke-linejoin:round; stroke-width:4; stroke-opacity:1; fill:none" points="1955.69,123.472 1955.69,132.921 "/>
<polyline clip-path="url(#clip470)" style="stroke:#000000; stroke-linecap:round; stroke-linejoin:round; stroke-width:4; stroke-opacity:1; fill:none" points="2054.95,123.472 2054.95,132.921 "/>
<polyline clip-path="url(#clip470)" style="stroke:#000000; stroke-linecap:round; stroke-linejoin:round; stroke-width:4; stroke-opacity:1; fill:none" points="2154.22,123.472 2154.22,132.921 "/>
<polyline clip-path="url(#clip470)" style="stroke:#000000; stroke-linecap:round; stroke-linejoin:round; stroke-width:4; stroke-opacity:1; fill:none" points="2253.49,123.472 2253.49,132.921 "/>
<path clip-path="url(#clip470)" d="M337.351 1468.75 L367.027 1468.75 L367.027 1472.69 L337.351 1472.69 L337.351 1468.75 Z" fill="#000000" fill-rule="nonzero" fill-opacity="1" /><path clip-path="url(#clip470)" d="M381.147 1481.64 L397.467 1481.64 L397.467 1485.58 L375.522 1485.58 L375.522 1481.64 Q378.184 1478.89 382.768 1474.26 Q387.374 1469.61 388.555 1468.27 Q390.8 1465.74 391.68 1464.01 Q392.582 1462.25 392.582 1460.56 Q392.582 1457.8 390.638 1456.07 Q388.717 1454.33 385.615 1454.33 Q383.416 1454.33 380.962 1455.09 Q378.532 1455.86 375.754 1457.41 L375.754 1452.69 Q378.578 1451.55 381.031 1450.97 Q383.485 1450.39 385.522 1450.39 Q390.893 1450.39 394.087 1453.08 Q397.281 1455.77 397.281 1460.26 Q397.281 1462.39 396.471 1464.31 Q395.684 1466.2 393.578 1468.8 Q392.999 1469.47 389.897 1472.69 Q386.795 1475.88 381.147 1481.64 Z" fill="#000000" fill-rule="nonzero" fill-opacity="1" /><path clip-path="url(#clip470)" d="M833.503 1468.75 L863.179 1468.75 L863.179 1472.69 L833.503 1472.69 L833.503 1468.75 Z" fill="#000000" fill-rule="nonzero" fill-opacity="1" /><path clip-path="url(#clip470)" d="M874.081 1481.64 L881.72 1481.64 L881.72 1455.28 L873.41 1456.95 L873.41 1452.69 L881.674 1451.02 L886.35 1451.02 L886.35 1481.64 L893.989 1481.64 L893.989 1485.58 L874.081 1485.58 L874.081 1481.64 Z" fill="#000000" fill-rule="nonzero" fill-opacity="1" /><path clip-path="url(#clip470)" d="M1360.08 1454.1 Q1356.47 1454.1 1354.64 1457.66 Q1352.84 1461.2 1352.84 1468.33 Q1352.84 1475.44 1354.64 1479.01 Q1356.47 1482.55 1360.08 1482.55 Q1363.72 1482.55 1365.52 1479.01 Q1367.35 1475.44 1367.35 1468.33 Q1367.35 1461.2 1365.52 1457.66 Q1363.72 1454.1 1360.08 1454.1 M1360.08 1450.39 Q1365.89 1450.39 1368.95 1455 Q1372.03 1459.58 1372.03 1468.33 Q1372.03 1477.06 1368.95 1481.67 Q1365.89 1486.25 1360.08 1486.25 Q1354.27 1486.25 1351.19 1481.67 Q1348.14 1477.06 1348.14 1468.33 Q1348.14 1459.58 1351.19 1455 Q1354.27 1450.39 1360.08 1450.39 Z" fill="#000000" fill-rule="nonzero" fill-opacity="1" /><path clip-path="url(#clip470)" d="M1846.8 1481.64 L1854.44 1481.64 L1854.44 1455.28 L1846.13 1456.95 L1846.13 1452.69 L1854.39 1451.02 L1859.07 1451.02 L1859.07 1481.64 L1866.71 1481.64 L1866.71 1485.58 L1846.8 1485.58 L1846.8 1481.64 Z" fill="#000000" fill-rule="nonzero" fill-opacity="1" /><path clip-path="url(#clip470)" d="M2347.41 1481.64 L2363.73 1481.64 L2363.73 1485.58 L2341.78 1485.58 L2341.78 1481.64 Q2344.45 1478.89 2349.03 1474.26 Q2353.64 1469.61 2354.82 1468.27 Q2357.06 1465.74 2357.94 1464.01 Q2358.84 1462.25 2358.84 1460.56 Q2358.84 1457.8 2356.9 1456.07 Q2354.98 1454.33 2351.88 1454.33 Q2349.68 1454.33 2347.22 1455.09 Q2344.79 1455.86 2342.02 1457.41 L2342.02 1452.69 Q2344.84 1451.55 2347.29 1450.97 Q2349.75 1450.39 2351.78 1450.39 Q2357.15 1450.39 2360.35 1453.08 Q2363.54 1455.77 2363.54 1460.26 Q2363.54 1462.39 2362.73 1464.31 Q2361.95 1466.2 2359.84 1468.8 Q2359.26 1469.47 2356.16 1472.69 Q2353.06 1475.88 2347.41 1481.64 Z" fill="#000000" fill-rule="nonzero" fill-opacity="1" /><path clip-path="url(#clip470)" d="M1488.33 1539.24 Q1490.53 1535.29 1493.58 1533.41 Q1496.64 1531.54 1500.78 1531.54 Q1506.35 1531.54 1509.37 1535.45 Q1512.39 1539.33 1512.39 1546.53 L1512.39 1568.04 L1506.5 1568.04 L1506.5 1546.72 Q1506.5 1541.59 1504.69 1539.11 Q1502.88 1536.63 1499.15 1536.63 Q1494.6 1536.63 1491.96 1539.65 Q1489.32 1542.68 1489.32 1547.9 L1489.32 1568.04 L1483.43 1568.04 L1483.43 1546.72 Q1483.43 1541.56 1481.61 1539.11 Q1479.8 1536.63 1476.01 1536.63 Q1471.53 1536.63 1468.88 1539.68 Q1466.24 1542.71 1466.24 1547.9 L1466.24 1568.04 L1460.35 1568.04 L1460.35 1532.4 L1466.24 1532.4 L1466.24 1537.93 Q1468.25 1534.66 1471.05 1533.1 Q1473.85 1531.54 1477.7 1531.54 Q1481.58 1531.54 1484.29 1533.51 Q1487.03 1535.48 1488.33 1539.24 Z" fill="#000000" fill-rule="nonzero" fill-opacity="1" /><path clip-path="url(#clip470)" d="M1538.14 1518.58 Q1533.88 1525.9 1531.81 1533.06 Q1529.74 1540.23 1529.74 1547.58 Q1529.74 1554.93 1531.81 1562.16 Q1533.91 1569.35 1538.14 1576.64 L1533.05 1576.64 Q1528.28 1569.16 1525.89 1561.93 Q1523.53 1554.71 1523.53 1547.58 Q1523.53 1540.48 1525.89 1533.29 Q1528.24 1526.09 1533.05 1518.58 L1538.14 1518.58 Z" fill="#000000" fill-rule="nonzero" fill-opacity="1" /><path clip-path="url(#clip470)" d="M1549.76 1520.52 L1556.19 1520.52 L1556.19 1564.73 Q1556.19 1573.33 1552.91 1577.21 Q1549.66 1581.09 1542.44 1581.09 L1539.99 1581.09 L1539.99 1575.68 L1541.99 1575.68 Q1546.26 1575.68 1548.01 1573.3 Q1549.76 1570.91 1549.76 1564.73 L1549.76 1520.52 Z" fill="#000000" fill-rule="nonzero" fill-opacity="1" /><path clip-path="url(#clip470)" d="M1579.14 1520.52 L1584.55 1520.52 L1568 1574.09 L1562.59 1574.09 L1579.14 1520.52 Z" fill="#000000" fill-rule="nonzero" fill-opacity="1" /><path clip-path="url(#clip470)" d="M1603.04 1568.84 Q1595.69 1567.66 1592.28 1564.57 Q1588.11 1560.79 1588.11 1553.05 L1588.11 1532.4 L1594.03 1532.4 L1594.03 1552.83 Q1594.03 1558.65 1596.74 1561.07 Q1599.09 1563.17 1603.04 1563.62 L1603.04 1532.4 L1608.87 1532.4 L1608.87 1563.59 Q1613.03 1563.14 1615.17 1561.04 Q1617.87 1558.37 1617.87 1552.8 L1617.87 1532.4 L1623.79 1532.4 L1623.79 1553.02 Q1623.79 1561.04 1619.62 1564.54 Q1615.87 1567.69 1608.87 1568.81 L1608.87 1581.6 L1603.04 1581.6 L1603.04 1568.84 Z" fill="#000000" fill-rule="nonzero" fill-opacity="1" /><path clip-path="url(#clip470)" d="M1629.9 1532.4 L1664.06 1532.4 L1664.06 1538.25 L1659.57 1538.25 L1659.57 1560.15 Q1659.57 1562.44 1660.33 1563.46 Q1661.13 1564.45 1662.88 1564.45 Q1663.36 1564.45 1664.06 1564.38 Q1664.76 1564.29 1664.98 1564.26 L1664.98 1568.49 Q1663.86 1568.9 1662.69 1569.09 Q1661.51 1569.29 1660.33 1569.29 Q1656.51 1569.29 1655.05 1567.22 Q1653.58 1565.12 1653.58 1559.51 L1653.58 1538.25 L1640.44 1538.25 L1640.44 1568.04 L1634.46 1568.04 L1634.46 1538.25 L1629.9 1538.25 L1629.9 1532.4 Z" fill="#000000" fill-rule="nonzero" fill-opacity="1" /><path clip-path="url(#clip470)" d="M1685.67 1523.9 L1685.67 1533.83 L1696.84 1533.83 L1696.84 1536.85 L1685.67 1536.85 L1685.67 1546.78 L1682.33 1546.78 L1682.33 1536.85 L1671.15 1536.85 L1671.15 1533.83 L1682.33 1533.83 L1682.33 1523.9 L1685.67 1523.9 Z" fill="#000000" fill-rule="nonzero" fill-opacity="1" /><path clip-path="url(#clip470)" d="M1703.56 1532.4 L1737.71 1532.4 L1737.71 1538.25 L1733.22 1538.25 L1733.22 1560.15 Q1733.22 1562.44 1733.98 1563.46 Q1734.78 1564.45 1736.53 1564.45 Q1737.01 1564.45 1737.71 1564.38 Q1738.41 1564.29 1738.63 1564.26 L1738.63 1568.49 Q1737.52 1568.9 1736.34 1569.09 Q1735.16 1569.29 1733.98 1569.29 Q1730.16 1569.29 1728.7 1567.22 Q1727.24 1565.12 1727.24 1559.51 L1727.24 1538.25 L1714.09 1538.25 L1714.09 1568.04 L1708.11 1568.04 L1708.11 1538.25 L1703.56 1538.25 L1703.56 1532.4 Z" fill="#000000" fill-rule="nonzero" fill-opacity="1" /><path clip-path="url(#clip470)" d="M1744.8 1533.83 L1770.49 1533.83 L1770.49 1536.85 L1744.8 1536.85 L1744.8 1533.83 Z" fill="#000000" fill-rule="nonzero" fill-opacity="1" /><path clip-path="url(#clip470)" d="M1780.07 1518.58 L1785.16 1518.58 Q1789.94 1526.09 1792.29 1533.29 Q1794.68 1540.48 1794.68 1547.58 Q1794.68 1554.71 1792.29 1561.93 Q1789.94 1569.16 1785.16 1576.64 L1780.07 1576.64 Q1784.3 1569.35 1786.37 1562.16 Q1788.47 1554.93 1788.47 1547.58 Q1788.47 1540.23 1786.37 1533.06 Q1784.3 1525.9 1780.07 1518.58 Z" fill="#000000" fill-rule="nonzero" fill-opacity="1" /><path clip-path="url(#clip470)" d="M1803.46 1547.58 L1820.62 1547.58 L1820.62 1552.8 L1803.46 1552.8 L1803.46 1547.58 Z" fill="#000000" fill-rule="nonzero" fill-opacity="1" /><path clip-path="url(#clip470)" d="M1857.7 1539.24 Q1859.9 1535.29 1862.95 1533.41 Q1866.01 1531.54 1870.15 1531.54 Q1875.72 1531.54 1878.74 1535.45 Q1881.76 1539.33 1881.76 1546.53 L1881.76 1568.04 L1875.87 1568.04 L1875.87 1546.72 Q1875.87 1541.59 1874.06 1539.11 Q1872.25 1536.63 1868.52 1536.63 Q1863.97 1536.63 1861.33 1539.65 Q1858.69 1542.68 1858.69 1547.9 L1858.69 1568.04 L1852.8 1568.04 L1852.8 1546.72 Q1852.8 1541.56 1850.98 1539.11 Q1849.17 1536.63 1845.38 1536.63 Q1840.9 1536.63 1838.25 1539.68 Q1835.61 1542.71 1835.61 1547.9 L1835.61 1568.04 L1829.72 1568.04 L1829.72 1532.4 L1835.61 1532.4 L1835.61 1537.93 Q1837.62 1534.66 1840.42 1533.1 Q1843.22 1531.54 1847.07 1531.54 Q1850.95 1531.54 1853.66 1533.51 Q1856.4 1535.48 1857.7 1539.24 Z" fill="#000000" fill-rule="nonzero" fill-opacity="1" /><path clip-path="url(#clip470)" d="M1907.51 1518.58 Q1903.25 1525.9 1901.18 1533.06 Q1899.11 1540.23 1899.11 1547.58 Q1899.11 1554.93 1901.18 1562.16 Q1903.28 1569.35 1907.51 1576.64 L1902.42 1576.64 Q1897.65 1569.16 1895.26 1561.93 Q1892.9 1554.71 1892.9 1547.58 Q1892.9 1540.48 1895.26 1533.29 Q1897.61 1526.09 1902.42 1518.58 L1907.51 1518.58 Z" fill="#000000" fill-rule="nonzero" fill-opacity="1" /><path clip-path="url(#clip470)" d="M1924.67 1522.27 L1924.67 1532.4 L1936.73 1532.4 L1936.73 1536.95 L1924.67 1536.95 L1924.67 1556.3 Q1924.67 1560.66 1925.85 1561.9 Q1927.06 1563.14 1930.72 1563.14 L1936.73 1563.14 L1936.73 1568.04 L1930.72 1568.04 Q1923.94 1568.04 1921.36 1565.53 Q1918.78 1562.98 1918.78 1556.3 L1918.78 1536.95 L1914.48 1536.95 L1914.48 1532.4 L1918.78 1532.4 L1918.78 1522.27 L1924.67 1522.27 Z" fill="#000000" fill-rule="nonzero" fill-opacity="1" /><path clip-path="url(#clip470)" d="M1974.07 1546.53 L1974.07 1568.04 L1968.21 1568.04 L1968.21 1546.72 Q1968.21 1541.66 1966.24 1539.14 Q1964.26 1536.63 1960.32 1536.63 Q1955.57 1536.63 1952.84 1539.65 Q1950.1 1542.68 1950.1 1547.9 L1950.1 1568.04 L1944.21 1568.04 L1944.21 1518.52 L1950.1 1518.52 L1950.1 1537.93 Q1952.2 1534.72 1955.03 1533.13 Q1957.9 1531.54 1961.62 1531.54 Q1967.76 1531.54 1970.91 1535.36 Q1974.07 1539.14 1974.07 1546.53 Z" fill="#000000" fill-rule="nonzero" fill-opacity="1" /><path clip-path="url(#clip470)" d="M2006.4 1537.87 Q2005.42 1537.3 2004.24 1537.04 Q2003.09 1536.76 2001.69 1536.76 Q1996.73 1536.76 1994.05 1540 Q1991.41 1543.22 1991.41 1549.27 L1991.41 1568.04 L1985.52 1568.04 L1985.52 1532.4 L1991.41 1532.4 L1991.41 1537.93 Q1993.26 1534.69 1996.22 1533.13 Q1999.18 1531.54 2003.41 1531.54 Q2004.02 1531.54 2004.75 1531.63 Q2005.48 1531.7 2006.37 1531.85 L2006.4 1537.87 Z" fill="#000000" fill-rule="nonzero" fill-opacity="1" /><path clip-path="url(#clip470)" d="M2007.39 1559.96 L2014.11 1559.96 L2014.11 1568.04 L2007.39 1568.04 L2007.39 1559.96 Z" fill="#000000" fill-rule="nonzero" fill-opacity="1" /><path clip-path="url(#clip470)" d="M2026.36 1518.58 L2031.45 1518.58 Q2036.23 1526.09 2038.58 1533.29 Q2040.97 1540.48 2040.97 1547.58 Q2040.97 1554.71 2038.58 1561.93 Q2036.23 1569.16 2031.45 1576.64 L2026.36 1576.64 Q2030.59 1569.35 2032.66 1562.16 Q2034.76 1554.93 2034.76 1547.58 Q2034.76 1540.23 2032.66 1533.06 Q2030.59 1525.9 2026.36 1518.58 Z" fill="#000000" fill-rule="nonzero" fill-opacity="1" /><path clip-path="url(#clip470)" d="M2072.89 1518.52 L2086.39 1518.52 L2086.39 1523.07 L2078.75 1523.07 L2078.75 1572.09 L2086.39 1572.09 L2086.39 1576.64 L2072.89 1576.64 L2072.89 1518.52 Z" fill="#000000" fill-rule="nonzero" fill-opacity="1" /><path clip-path="url(#clip470)" d="M2099.12 1520.52 L2108.7 1520.52 L2120.83 1552.86 L2133.02 1520.52 L2142.6 1520.52 L2142.6 1568.04 L2136.33 1568.04 L2136.33 1526.32 L2124.07 1558.91 L2117.61 1558.91 L2105.36 1526.32 L2105.36 1568.04 L2099.12 1568.04 L2099.12 1520.52 Z" fill="#000000" fill-rule="nonzero" fill-opacity="1" /><path clip-path="url(#clip470)" d="M2185.6 1548.76 L2185.6 1551.62 L2158.67 1551.62 Q2159.05 1557.67 2162.3 1560.85 Q2165.58 1564 2171.4 1564 Q2174.78 1564 2177.93 1563.17 Q2181.11 1562.35 2184.23 1560.69 L2184.23 1566.23 Q2181.08 1567.57 2177.77 1568.27 Q2174.46 1568.97 2171.05 1568.97 Q2162.52 1568.97 2157.53 1564 Q2152.56 1559.04 2152.56 1550.57 Q2152.56 1541.82 2157.27 1536.69 Q2162.01 1531.54 2170.03 1531.54 Q2177.23 1531.54 2181.4 1536.18 Q2185.6 1540.8 2185.6 1548.76 M2179.74 1547.04 Q2179.68 1542.23 2177.04 1539.37 Q2174.43 1536.5 2170.1 1536.5 Q2165.2 1536.5 2162.24 1539.27 Q2159.31 1542.04 2158.86 1547.07 L2179.74 1547.04 Z" fill="#000000" fill-rule="nonzero" fill-opacity="1" /><path clip-path="url(#clip470)" d="M2207.72 1568.04 L2189.58 1520.52 L2196.29 1520.52 L2211.35 1560.53 L2226.43 1520.52 L2233.12 1520.52 L2215.01 1568.04 L2207.72 1568.04 Z" fill="#000000" fill-rule="nonzero" fill-opacity="1" /><path clip-path="url(#clip470)" d="M2253.49 1518.52 L2253.49 1576.64 L2239.99 1576.64 L2239.99 1572.09 L2247.6 1572.09 L2247.6 1523.07 L2239.99 1523.07 L2239.99 1518.52 L2253.49 1518.52 Z" fill="#000000" fill-rule="nonzero" fill-opacity="1" /><polyline clip-path="url(#clip470)" style="stroke:#000000; stroke-linecap:round; stroke-linejoin:round; stroke-width:4; stroke-opacity:1; fill:none" points="367.409,1423.18 367.409,123.472 "/>
<polyline clip-path="url(#clip470)" style="stroke:#000000; stroke-linecap:round; stroke-linejoin:round; stroke-width:4; stroke-opacity:1; fill:none" points="2352.76,1423.18 2352.76,123.472 "/>
<polyline clip-path="url(#clip470)" style="stroke:#000000; stroke-linecap:round; stroke-linejoin:round; stroke-width:4; stroke-opacity:1; fill:none" points="367.409,1423.18 386.307,1423.18 "/>
<polyline clip-path="url(#clip470)" style="stroke:#000000; stroke-linecap:round; stroke-linejoin:round; stroke-width:4; stroke-opacity:1; fill:none" points="367.409,1141.14 386.307,1141.14 "/>
<polyline clip-path="url(#clip470)" style="stroke:#000000; stroke-linecap:round; stroke-linejoin:round; stroke-width:4; stroke-opacity:1; fill:none" points="367.409,859.098 386.307,859.098 "/>
<polyline clip-path="url(#clip470)" style="stroke:#000000; stroke-linecap:round; stroke-linejoin:round; stroke-width:4; stroke-opacity:1; fill:none" points="367.409,577.057 386.307,577.057 "/>
<polyline clip-path="url(#clip470)" style="stroke:#000000; stroke-linecap:round; stroke-linejoin:round; stroke-width:4; stroke-opacity:1; fill:none" points="367.409,295.016 386.307,295.016 "/>
<polyline clip-path="url(#clip470)" style="stroke:#000000; stroke-linecap:round; stroke-linejoin:round; stroke-width:4; stroke-opacity:1; fill:none" points="2352.76,1423.18 2333.86,1423.18 "/>
<polyline clip-path="url(#clip470)" style="stroke:#000000; stroke-linecap:round; stroke-linejoin:round; stroke-width:4; stroke-opacity:1; fill:none" points="2352.76,1141.14 2333.86,1141.14 "/>
<polyline clip-path="url(#clip470)" style="stroke:#000000; stroke-linecap:round; stroke-linejoin:round; stroke-width:4; stroke-opacity:1; fill:none" points="2352.76,859.098 2333.86,859.098 "/>
<polyline clip-path="url(#clip470)" style="stroke:#000000; stroke-linecap:round; stroke-linejoin:round; stroke-width:4; stroke-opacity:1; fill:none" points="2352.76,577.057 2333.86,577.057 "/>
<polyline clip-path="url(#clip470)" style="stroke:#000000; stroke-linecap:round; stroke-linejoin:round; stroke-width:4; stroke-opacity:1; fill:none" points="2352.76,295.016 2333.86,295.016 "/>
<polyline clip-path="url(#clip470)" style="stroke:#000000; stroke-linecap:round; stroke-linejoin:round; stroke-width:4; stroke-opacity:1; fill:none" points="367.409,1366.77 376.858,1366.77 "/>
<polyline clip-path="url(#clip470)" style="stroke:#000000; stroke-linecap:round; stroke-linejoin:round; stroke-width:4; stroke-opacity:1; fill:none" points="367.409,1310.36 376.858,1310.36 "/>
<polyline clip-path="url(#clip470)" style="stroke:#000000; stroke-linecap:round; stroke-linejoin:round; stroke-width:4; stroke-opacity:1; fill:none" points="367.409,1253.96 376.858,1253.96 "/>
<polyline clip-path="url(#clip470)" style="stroke:#000000; stroke-linecap:round; stroke-linejoin:round; stroke-width:4; stroke-opacity:1; fill:none" points="367.409,1197.55 376.858,1197.55 "/>
<polyline clip-path="url(#clip470)" style="stroke:#000000; stroke-linecap:round; stroke-linejoin:round; stroke-width:4; stroke-opacity:1; fill:none" points="367.409,1084.73 376.858,1084.73 "/>
<polyline clip-path="url(#clip470)" style="stroke:#000000; stroke-linecap:round; stroke-linejoin:round; stroke-width:4; stroke-opacity:1; fill:none" points="367.409,1028.32 376.858,1028.32 "/>
<polyline clip-path="url(#clip470)" style="stroke:#000000; stroke-linecap:round; stroke-linejoin:round; stroke-width:4; stroke-opacity:1; fill:none" points="367.409,971.914 376.858,971.914 "/>
<polyline clip-path="url(#clip470)" style="stroke:#000000; stroke-linecap:round; stroke-linejoin:round; stroke-width:4; stroke-opacity:1; fill:none" points="367.409,915.506 376.858,915.506 "/>
<polyline clip-path="url(#clip470)" style="stroke:#000000; stroke-linecap:round; stroke-linejoin:round; stroke-width:4; stroke-opacity:1; fill:none" points="367.409,802.69 376.858,802.69 "/>
<polyline clip-path="url(#clip470)" style="stroke:#000000; stroke-linecap:round; stroke-linejoin:round; stroke-width:4; stroke-opacity:1; fill:none" points="367.409,746.282 376.858,746.282 "/>
<polyline clip-path="url(#clip470)" style="stroke:#000000; stroke-linecap:round; stroke-linejoin:round; stroke-width:4; stroke-opacity:1; fill:none" points="367.409,689.874 376.858,689.874 "/>
<polyline clip-path="url(#clip470)" style="stroke:#000000; stroke-linecap:round; stroke-linejoin:round; stroke-width:4; stroke-opacity:1; fill:none" points="367.409,633.465 376.858,633.465 "/>
<polyline clip-path="url(#clip470)" style="stroke:#000000; stroke-linecap:round; stroke-linejoin:round; stroke-width:4; stroke-opacity:1; fill:none" points="367.409,520.649 376.858,520.649 "/>
<polyline clip-path="url(#clip470)" style="stroke:#000000; stroke-linecap:round; stroke-linejoin:round; stroke-width:4; stroke-opacity:1; fill:none" points="367.409,464.241 376.858,464.241 "/>
<polyline clip-path="url(#clip470)" style="stroke:#000000; stroke-linecap:round; stroke-linejoin:round; stroke-width:4; stroke-opacity:1; fill:none" points="367.409,407.833 376.858,407.833 "/>
<polyline clip-path="url(#clip470)" style="stroke:#000000; stroke-linecap:round; stroke-linejoin:round; stroke-width:4; stroke-opacity:1; fill:none" points="367.409,351.425 376.858,351.425 "/>
<polyline clip-path="url(#clip470)" style="stroke:#000000; stroke-linecap:round; stroke-linejoin:round; stroke-width:4; stroke-opacity:1; fill:none" points="367.409,238.608 376.858,238.608 "/>
<polyline clip-path="url(#clip470)" style="stroke:#000000; stroke-linecap:round; stroke-linejoin:round; stroke-width:4; stroke-opacity:1; fill:none" points="367.409,182.2 376.858,182.2 "/>
<polyline clip-path="url(#clip470)" style="stroke:#000000; stroke-linecap:round; stroke-linejoin:round; stroke-width:4; stroke-opacity:1; fill:none" points="367.409,125.792 376.858,125.792 "/>
<polyline clip-path="url(#clip470)" style="stroke:#000000; stroke-linecap:round; stroke-linejoin:round; stroke-width:4; stroke-opacity:1; fill:none" points="2352.76,1366.77 2343.31,1366.77 "/>
<polyline clip-path="url(#clip470)" style="stroke:#000000; stroke-linecap:round; stroke-linejoin:round; stroke-width:4; stroke-opacity:1; fill:none" points="2352.76,1310.36 2343.31,1310.36 "/>
<polyline clip-path="url(#clip470)" style="stroke:#000000; stroke-linecap:round; stroke-linejoin:round; stroke-width:4; stroke-opacity:1; fill:none" points="2352.76,1253.96 2343.31,1253.96 "/>
<polyline clip-path="url(#clip470)" style="stroke:#000000; stroke-linecap:round; stroke-linejoin:round; stroke-width:4; stroke-opacity:1; fill:none" points="2352.76,1197.55 2343.31,1197.55 "/>
<polyline clip-path="url(#clip470)" style="stroke:#000000; stroke-linecap:round; stroke-linejoin:round; stroke-width:4; stroke-opacity:1; fill:none" points="2352.76,1084.73 2343.31,1084.73 "/>
<polyline clip-path="url(#clip470)" style="stroke:#000000; stroke-linecap:round; stroke-linejoin:round; stroke-width:4; stroke-opacity:1; fill:none" points="2352.76,1028.32 2343.31,1028.32 "/>
<polyline clip-path="url(#clip470)" style="stroke:#000000; stroke-linecap:round; stroke-linejoin:round; stroke-width:4; stroke-opacity:1; fill:none" points="2352.76,971.914 2343.31,971.914 "/>
<polyline clip-path="url(#clip470)" style="stroke:#000000; stroke-linecap:round; stroke-linejoin:round; stroke-width:4; stroke-opacity:1; fill:none" points="2352.76,915.506 2343.31,915.506 "/>
<polyline clip-path="url(#clip470)" style="stroke:#000000; stroke-linecap:round; stroke-linejoin:round; stroke-width:4; stroke-opacity:1; fill:none" points="2352.76,802.69 2343.31,802.69 "/>
<polyline clip-path="url(#clip470)" style="stroke:#000000; stroke-linecap:round; stroke-linejoin:round; stroke-width:4; stroke-opacity:1; fill:none" points="2352.76,746.282 2343.31,746.282 "/>
<polyline clip-path="url(#clip470)" style="stroke:#000000; stroke-linecap:round; stroke-linejoin:round; stroke-width:4; stroke-opacity:1; fill:none" points="2352.76,689.874 2343.31,689.874 "/>
<polyline clip-path="url(#clip470)" style="stroke:#000000; stroke-linecap:round; stroke-linejoin:round; stroke-width:4; stroke-opacity:1; fill:none" points="2352.76,633.465 2343.31,633.465 "/>
<polyline clip-path="url(#clip470)" style="stroke:#000000; stroke-linecap:round; stroke-linejoin:round; stroke-width:4; stroke-opacity:1; fill:none" points="2352.76,520.649 2343.31,520.649 "/>
<polyline clip-path="url(#clip470)" style="stroke:#000000; stroke-linecap:round; stroke-linejoin:round; stroke-width:4; stroke-opacity:1; fill:none" points="2352.76,464.241 2343.31,464.241 "/>
<polyline clip-path="url(#clip470)" style="stroke:#000000; stroke-linecap:round; stroke-linejoin:round; stroke-width:4; stroke-opacity:1; fill:none" points="2352.76,407.833 2343.31,407.833 "/>
<polyline clip-path="url(#clip470)" style="stroke:#000000; stroke-linecap:round; stroke-linejoin:round; stroke-width:4; stroke-opacity:1; fill:none" points="2352.76,351.425 2343.31,351.425 "/>
<polyline clip-path="url(#clip470)" style="stroke:#000000; stroke-linecap:round; stroke-linejoin:round; stroke-width:4; stroke-opacity:1; fill:none" points="2352.76,238.608 2343.31,238.608 "/>
<polyline clip-path="url(#clip470)" style="stroke:#000000; stroke-linecap:round; stroke-linejoin:round; stroke-width:4; stroke-opacity:1; fill:none" points="2352.76,182.2 2343.31,182.2 "/>
<polyline clip-path="url(#clip470)" style="stroke:#000000; stroke-linecap:round; stroke-linejoin:round; stroke-width:4; stroke-opacity:1; fill:none" points="2352.76,125.792 2343.31,125.792 "/>
<path clip-path="url(#clip470)" d="M319.464 1408.98 Q315.853 1408.98 314.025 1412.54 Q312.219 1416.08 312.219 1423.21 Q312.219 1430.32 314.025 1433.89 Q315.853 1437.43 319.464 1437.43 Q323.099 1437.43 324.904 1433.89 Q326.733 1430.32 326.733 1423.21 Q326.733 1416.08 324.904 1412.54 Q323.099 1408.98 319.464 1408.98 M319.464 1405.27 Q325.275 1405.27 328.33 1409.88 Q331.409 1414.46 331.409 1423.21 Q331.409 1431.94 328.33 1436.55 Q325.275 1441.13 319.464 1441.13 Q313.654 1441.13 310.576 1436.55 Q307.52 1431.94 307.52 1423.21 Q307.52 1414.46 310.576 1409.88 Q313.654 1405.27 319.464 1405.27 Z" fill="#000000" fill-rule="nonzero" fill-opacity="1" /><path clip-path="url(#clip470)" d="M119.885 1160.93 L136.204 1160.93 L136.204 1164.87 L114.26 1164.87 L114.26 1160.93 Q116.922 1158.18 121.505 1153.55 Q126.112 1148.89 127.292 1147.55 Q129.538 1145.03 130.417 1143.29 Q131.32 1141.53 131.32 1139.84 Q131.32 1137.09 129.376 1135.35 Q127.455 1133.62 124.353 1133.62 Q122.154 1133.62 119.7 1134.38 Q117.269 1135.14 114.492 1136.7 L114.492 1131.97 Q117.316 1130.84 119.769 1130.26 Q122.223 1129.68 124.26 1129.68 Q129.63 1129.68 132.825 1132.37 Q136.019 1135.05 136.019 1139.54 Q136.019 1141.67 135.209 1143.59 Q134.422 1145.49 132.316 1148.08 Q131.737 1148.76 128.635 1151.97 Q125.533 1155.17 119.885 1160.93 Z" fill="#000000" fill-rule="nonzero" fill-opacity="1" /><path clip-path="url(#clip470)" d="M146.019 1158.99 L150.903 1158.99 L150.903 1164.87 L146.019 1164.87 L146.019 1158.99 Z" fill="#000000" fill-rule="nonzero" fill-opacity="1" /><path clip-path="url(#clip470)" d="M161.135 1130.31 L179.491 1130.31 L179.491 1134.24 L165.417 1134.24 L165.417 1142.71 Q166.436 1142.37 167.454 1142.2 Q168.473 1142.02 169.491 1142.02 Q175.278 1142.02 178.658 1145.19 Q182.038 1148.36 182.038 1153.78 Q182.038 1159.36 178.565 1162.46 Q175.093 1165.54 168.774 1165.54 Q166.598 1165.54 164.329 1165.17 Q162.084 1164.8 159.677 1164.06 L159.677 1159.36 Q161.76 1160.49 163.982 1161.05 Q166.204 1161.6 168.681 1161.6 Q172.686 1161.6 175.024 1159.5 Q177.362 1157.39 177.362 1153.78 Q177.362 1150.17 175.024 1148.06 Q172.686 1145.95 168.681 1145.95 Q166.806 1145.95 164.931 1146.37 Q163.079 1146.79 161.135 1147.67 L161.135 1130.31 Z" fill="#000000" fill-rule="nonzero" fill-opacity="1" /><path clip-path="url(#clip470)" d="M201.25 1133.39 Q197.639 1133.39 195.811 1136.95 Q194.005 1140.49 194.005 1147.62 Q194.005 1154.73 195.811 1158.29 Q197.639 1161.83 201.25 1161.83 Q204.885 1161.83 206.69 1158.29 Q208.519 1154.73 208.519 1147.62 Q208.519 1140.49 206.69 1136.95 Q204.885 1133.39 201.25 1133.39 M201.25 1129.68 Q207.061 1129.68 210.116 1134.29 Q213.195 1138.87 213.195 1147.62 Q213.195 1156.35 210.116 1160.95 Q207.061 1165.54 201.25 1165.54 Q195.44 1165.54 192.362 1160.95 Q189.306 1156.35 189.306 1147.62 Q189.306 1138.87 192.362 1134.29 Q195.44 1129.68 201.25 1129.68 Z" fill="#000000" fill-rule="nonzero" fill-opacity="1" /><path clip-path="url(#clip470)" d="M249.584 1139.4 L239.005 1150.03 L249.584 1160.61 L246.829 1163.41 L236.204 1152.78 L225.579 1163.41 L222.848 1160.61 L233.403 1150.03 L222.848 1139.4 L225.579 1136.6 L236.204 1147.23 L246.829 1136.6 L249.584 1139.4 Z" fill="#000000" fill-rule="nonzero" fill-opacity="1" /><path clip-path="url(#clip470)" d="M261.945 1160.93 L269.583 1160.93 L269.583 1134.57 L261.273 1136.23 L261.273 1131.97 L269.537 1130.31 L274.213 1130.31 L274.213 1160.93 L281.852 1160.93 L281.852 1164.87 L261.945 1164.87 L261.945 1160.93 Z" fill="#000000" fill-rule="nonzero" fill-opacity="1" /><path clip-path="url(#clip470)" d="M301.296 1133.39 Q297.685 1133.39 295.856 1136.95 Q294.051 1140.49 294.051 1147.62 Q294.051 1154.73 295.856 1158.29 Q297.685 1161.83 301.296 1161.83 Q304.93 1161.83 306.736 1158.29 Q308.565 1154.73 308.565 1147.62 Q308.565 1140.49 306.736 1136.95 Q304.93 1133.39 301.296 1133.39 M301.296 1129.68 Q307.106 1129.68 310.162 1134.29 Q313.241 1138.87 313.241 1147.62 Q313.241 1156.35 310.162 1160.95 Q307.106 1165.54 301.296 1165.54 Q295.486 1165.54 292.407 1160.95 Q289.352 1156.35 289.352 1147.62 Q289.352 1138.87 292.407 1134.29 Q295.486 1129.68 301.296 1129.68 Z" fill="#000000" fill-rule="nonzero" fill-opacity="1" /><path clip-path="url(#clip470)" d="M314.425 1109.38 L329.34 1109.38 L329.34 1112.57 L317.905 1112.57 L317.905 1119.46 Q318.732 1119.18 319.56 1119.04 Q320.388 1118.89 321.215 1118.89 Q325.917 1118.89 328.663 1121.47 Q331.409 1124.05 331.409 1128.45 Q331.409 1132.98 328.588 1135.5 Q325.767 1138 320.632 1138 Q318.864 1138 317.021 1137.7 Q315.197 1137.4 313.241 1136.8 L313.241 1132.98 Q314.933 1133.9 316.739 1134.35 Q318.544 1134.8 320.557 1134.8 Q323.811 1134.8 325.71 1133.09 Q327.61 1131.38 327.61 1128.45 Q327.61 1125.51 325.71 1123.8 Q323.811 1122.09 320.557 1122.09 Q319.033 1122.09 317.51 1122.43 Q316.005 1122.77 314.425 1123.48 L314.425 1109.38 Z" fill="#000000" fill-rule="nonzero" fill-opacity="1" /><path clip-path="url(#clip470)" d="M115.904 848.266 L134.26 848.266 L134.26 852.201 L120.186 852.201 L120.186 860.673 Q121.205 860.326 122.223 860.164 Q123.242 859.979 124.26 859.979 Q130.047 859.979 133.427 863.15 Q136.806 866.321 136.806 871.738 Q136.806 877.317 133.334 880.418 Q129.862 883.497 123.543 883.497 Q121.367 883.497 119.098 883.127 Q116.853 882.756 114.445 882.016 L114.445 877.317 Q116.529 878.451 118.751 879.006 Q120.973 879.562 123.45 879.562 Q127.455 879.562 129.792 877.455 Q132.13 875.349 132.13 871.738 Q132.13 868.127 129.792 866.02 Q127.455 863.914 123.45 863.914 Q121.575 863.914 119.7 864.33 Q117.848 864.747 115.904 865.627 L115.904 848.266 Z" fill="#000000" fill-rule="nonzero" fill-opacity="1" /><path clip-path="url(#clip470)" d="M146.019 876.946 L150.903 876.946 L150.903 882.826 L146.019 882.826 L146.019 876.946 Z" fill="#000000" fill-rule="nonzero" fill-opacity="1" /><path clip-path="url(#clip470)" d="M171.089 851.344 Q167.477 851.344 165.649 854.909 Q163.843 858.451 163.843 865.58 Q163.843 872.687 165.649 876.252 Q167.477 879.793 171.089 879.793 Q174.723 879.793 176.528 876.252 Q178.357 872.687 178.357 865.58 Q178.357 858.451 176.528 854.909 Q174.723 851.344 171.089 851.344 M171.089 847.641 Q176.899 847.641 179.954 852.247 Q183.033 856.831 183.033 865.58 Q183.033 874.307 179.954 878.914 Q176.899 883.497 171.089 883.497 Q165.278 883.497 162.2 878.914 Q159.144 874.307 159.144 865.58 Q159.144 856.831 162.2 852.247 Q165.278 847.641 171.089 847.641 Z" fill="#000000" fill-rule="nonzero" fill-opacity="1" /><path clip-path="url(#clip470)" d="M201.25 851.344 Q197.639 851.344 195.811 854.909 Q194.005 858.451 194.005 865.58 Q194.005 872.687 195.811 876.252 Q197.639 879.793 201.25 879.793 Q204.885 879.793 206.69 876.252 Q208.519 872.687 208.519 865.58 Q208.519 858.451 206.69 854.909 Q204.885 851.344 201.25 851.344 M201.25 847.641 Q207.061 847.641 210.116 852.247 Q213.195 856.831 213.195 865.58 Q213.195 874.307 210.116 878.914 Q207.061 883.497 201.25 883.497 Q195.44 883.497 192.362 878.914 Q189.306 874.307 189.306 865.58 Q189.306 856.831 192.362 852.247 Q195.44 847.641 201.25 847.641 Z" fill="#000000" fill-rule="nonzero" fill-opacity="1" /><path clip-path="url(#clip470)" d="M249.584 857.363 L239.005 867.988 L249.584 878.567 L246.829 881.367 L236.204 870.742 L225.579 881.367 L222.848 878.567 L233.403 867.988 L222.848 857.363 L225.579 854.562 L236.204 865.187 L246.829 854.562 L249.584 857.363 Z" fill="#000000" fill-rule="nonzero" fill-opacity="1" /><path clip-path="url(#clip470)" d="M261.945 878.891 L269.583 878.891 L269.583 852.525 L261.273 854.192 L261.273 849.932 L269.537 848.266 L274.213 848.266 L274.213 878.891 L281.852 878.891 L281.852 882.826 L261.945 882.826 L261.945 878.891 Z" fill="#000000" fill-rule="nonzero" fill-opacity="1" /><path clip-path="url(#clip470)" d="M301.296 851.344 Q297.685 851.344 295.856 854.909 Q294.051 858.451 294.051 865.58 Q294.051 872.687 295.856 876.252 Q297.685 879.793 301.296 879.793 Q304.93 879.793 306.736 876.252 Q308.565 872.687 308.565 865.58 Q308.565 858.451 306.736 854.909 Q304.93 851.344 301.296 851.344 M301.296 847.641 Q307.106 847.641 310.162 852.247 Q313.241 856.831 313.241 865.58 Q313.241 874.307 310.162 878.914 Q307.106 883.497 301.296 883.497 Q295.486 883.497 292.407 878.914 Q289.352 874.307 289.352 865.58 Q289.352 856.831 292.407 852.247 Q295.486 847.641 301.296 847.641 Z" fill="#000000" fill-rule="nonzero" fill-opacity="1" /><path clip-path="url(#clip470)" d="M314.425 827.335 L329.34 827.335 L329.34 830.533 L317.905 830.533 L317.905 837.416 Q318.732 837.134 319.56 837.003 Q320.388 836.852 321.215 836.852 Q325.917 836.852 328.663 839.429 Q331.409 842.005 331.409 846.406 Q331.409 850.939 328.588 853.459 Q325.767 855.961 320.632 855.961 Q318.864 855.961 317.021 855.66 Q315.197 855.359 313.241 854.757 L313.241 850.939 Q314.933 851.861 316.739 852.312 Q318.544 852.763 320.557 852.763 Q323.811 852.763 325.71 851.052 Q327.61 849.34 327.61 846.406 Q327.61 843.472 325.71 841.761 Q323.811 840.049 320.557 840.049 Q319.033 840.049 317.51 840.388 Q316.005 840.726 314.425 841.441 L314.425 827.335 Z" fill="#000000" fill-rule="nonzero" fill-opacity="1" /><path clip-path="url(#clip470)" d="M114.677 566.225 L136.899 566.225 L136.899 568.216 L124.353 600.785 L119.468 600.785 L131.274 570.16 L114.677 570.16 L114.677 566.225 Z" fill="#000000" fill-rule="nonzero" fill-opacity="1" /><path clip-path="url(#clip470)" d="M146.019 594.905 L150.903 594.905 L150.903 600.785 L146.019 600.785 L146.019 594.905 Z" fill="#000000" fill-rule="nonzero" fill-opacity="1" /><path clip-path="url(#clip470)" d="M161.135 566.225 L179.491 566.225 L179.491 570.16 L165.417 570.16 L165.417 578.632 Q166.436 578.285 167.454 578.123 Q168.473 577.938 169.491 577.938 Q175.278 577.938 178.658 581.109 Q182.038 584.28 182.038 589.697 Q182.038 595.276 178.565 598.378 Q175.093 601.456 168.774 601.456 Q166.598 601.456 164.329 601.086 Q162.084 600.715 159.677 599.975 L159.677 595.276 Q161.76 596.41 163.982 596.965 Q166.204 597.521 168.681 597.521 Q172.686 597.521 175.024 595.415 Q177.362 593.308 177.362 589.697 Q177.362 586.086 175.024 583.979 Q172.686 581.873 168.681 581.873 Q166.806 581.873 164.931 582.29 Q163.079 582.706 161.135 583.586 L161.135 566.225 Z" fill="#000000" fill-rule="nonzero" fill-opacity="1" /><path clip-path="url(#clip470)" d="M201.25 569.304 Q197.639 569.304 195.811 572.868 Q194.005 576.41 194.005 583.54 Q194.005 590.646 195.811 594.211 Q197.639 597.753 201.25 597.753 Q204.885 597.753 206.69 594.211 Q208.519 590.646 208.519 583.54 Q208.519 576.41 206.69 572.868 Q204.885 569.304 201.25 569.304 M201.25 565.6 Q207.061 565.6 210.116 570.206 Q213.195 574.79 213.195 583.54 Q213.195 592.266 210.116 596.873 Q207.061 601.456 201.25 601.456 Q195.44 601.456 192.362 596.873 Q189.306 592.266 189.306 583.54 Q189.306 574.79 192.362 570.206 Q195.44 565.6 201.25 565.6 Z" fill="#000000" fill-rule="nonzero" fill-opacity="1" /><path clip-path="url(#clip470)" d="M249.584 575.322 L239.005 585.947 L249.584 596.526 L246.829 599.327 L236.204 588.702 L225.579 599.327 L222.848 596.526 L233.403 585.947 L222.848 575.322 L225.579 572.521 L236.204 583.146 L246.829 572.521 L249.584 575.322 Z" fill="#000000" fill-rule="nonzero" fill-opacity="1" /><path clip-path="url(#clip470)" d="M261.945 596.85 L269.583 596.85 L269.583 570.484 L261.273 572.151 L261.273 567.892 L269.537 566.225 L274.213 566.225 L274.213 596.85 L281.852 596.85 L281.852 600.785 L261.945 600.785 L261.945 596.85 Z" fill="#000000" fill-rule="nonzero" fill-opacity="1" /><path clip-path="url(#clip470)" d="M301.296 569.304 Q297.685 569.304 295.856 572.868 Q294.051 576.41 294.051 583.54 Q294.051 590.646 295.856 594.211 Q297.685 597.753 301.296 597.753 Q304.93 597.753 306.736 594.211 Q308.565 590.646 308.565 583.54 Q308.565 576.41 306.736 572.868 Q304.93 569.304 301.296 569.304 M301.296 565.6 Q307.106 565.6 310.162 570.206 Q313.241 574.79 313.241 583.54 Q313.241 592.266 310.162 596.873 Q307.106 601.456 301.296 601.456 Q295.486 601.456 292.407 596.873 Q289.352 592.266 289.352 583.54 Q289.352 574.79 292.407 570.206 Q295.486 565.6 301.296 565.6 Z" fill="#000000" fill-rule="nonzero" fill-opacity="1" /><path clip-path="url(#clip470)" d="M314.425 545.295 L329.34 545.295 L329.34 548.492 L317.905 548.492 L317.905 555.375 Q318.732 555.093 319.56 554.962 Q320.388 554.811 321.215 554.811 Q325.917 554.811 328.663 557.388 Q331.409 559.965 331.409 564.366 Q331.409 568.898 328.588 571.418 Q325.767 573.92 320.632 573.92 Q318.864 573.92 317.021 573.619 Q315.197 573.318 313.241 572.716 L313.241 568.898 Q314.933 569.82 316.739 570.271 Q318.544 570.723 320.557 570.723 Q323.811 570.723 325.71 569.011 Q327.61 567.3 327.61 564.366 Q327.61 561.432 325.71 559.72 Q323.811 558.009 320.557 558.009 Q319.033 558.009 317.51 558.347 Q316.005 558.686 314.425 559.4 L314.425 545.295 Z" fill="#000000" fill-rule="nonzero" fill-opacity="1" /><path clip-path="url(#clip470)" d="M115.445 314.809 L123.084 314.809 L123.084 288.443 L114.774 290.11 L114.774 285.851 L123.038 284.184 L127.713 284.184 L127.713 314.809 L135.352 314.809 L135.352 318.744 L115.445 318.744 L115.445 314.809 Z" fill="#000000" fill-rule="nonzero" fill-opacity="1" /><path clip-path="url(#clip470)" d="M144.797 312.864 L149.681 312.864 L149.681 318.744 L144.797 318.744 L144.797 312.864 Z" fill="#000000" fill-rule="nonzero" fill-opacity="1" /><path clip-path="url(#clip470)" d="M169.866 287.263 Q166.255 287.263 164.426 290.828 Q162.621 294.369 162.621 301.499 Q162.621 308.605 164.426 312.17 Q166.255 315.712 169.866 315.712 Q173.5 315.712 175.306 312.17 Q177.135 308.605 177.135 301.499 Q177.135 294.369 175.306 290.828 Q173.5 287.263 169.866 287.263 M169.866 283.559 Q175.676 283.559 178.732 288.166 Q181.81 292.749 181.81 301.499 Q181.81 310.226 178.732 314.832 Q175.676 319.415 169.866 319.415 Q164.056 319.415 160.977 314.832 Q157.922 310.226 157.922 301.499 Q157.922 292.749 160.977 288.166 Q164.056 283.559 169.866 283.559 Z" fill="#000000" fill-rule="nonzero" fill-opacity="1" /><path clip-path="url(#clip470)" d="M200.028 287.263 Q196.417 287.263 194.588 290.828 Q192.783 294.369 192.783 301.499 Q192.783 308.605 194.588 312.17 Q196.417 315.712 200.028 315.712 Q203.662 315.712 205.468 312.17 Q207.296 308.605 207.296 301.499 Q207.296 294.369 205.468 290.828 Q203.662 287.263 200.028 287.263 M200.028 283.559 Q205.838 283.559 208.894 288.166 Q211.972 292.749 211.972 301.499 Q211.972 310.226 208.894 314.832 Q205.838 319.415 200.028 319.415 Q194.218 319.415 191.139 314.832 Q188.084 310.226 188.084 301.499 Q188.084 292.749 191.139 288.166 Q194.218 283.559 200.028 283.559 Z" fill="#000000" fill-rule="nonzero" fill-opacity="1" /><path clip-path="url(#clip470)" d="M248.361 293.281 L237.782 303.906 L248.361 314.485 L245.606 317.286 L234.981 306.661 L224.357 317.286 L221.625 314.485 L232.181 303.906 L221.625 293.281 L224.357 290.48 L234.981 301.105 L245.606 290.48 L248.361 293.281 Z" fill="#000000" fill-rule="nonzero" fill-opacity="1" /><path clip-path="url(#clip470)" d="M260.722 314.809 L268.361 314.809 L268.361 288.443 L260.051 290.11 L260.051 285.851 L268.315 284.184 L272.99 284.184 L272.99 314.809 L280.629 314.809 L280.629 318.744 L260.722 318.744 L260.722 314.809 Z" fill="#000000" fill-rule="nonzero" fill-opacity="1" /><path clip-path="url(#clip470)" d="M300.074 287.263 Q296.463 287.263 294.634 290.828 Q292.828 294.369 292.828 301.499 Q292.828 308.605 294.634 312.17 Q296.463 315.712 300.074 315.712 Q303.708 315.712 305.513 312.17 Q307.342 308.605 307.342 301.499 Q307.342 294.369 305.513 290.828 Q303.708 287.263 300.074 287.263 M300.074 283.559 Q305.884 283.559 308.939 288.166 Q312.018 292.749 312.018 301.499 Q312.018 310.226 308.939 314.832 Q305.884 319.415 300.074 319.415 Q294.264 319.415 291.185 314.832 Q288.129 310.226 288.129 301.499 Q288.129 292.749 291.185 288.166 Q294.264 283.559 300.074 283.559 Z" fill="#000000" fill-rule="nonzero" fill-opacity="1" /><path clip-path="url(#clip470)" d="M322.043 275.78 Q319.485 275.78 317.98 277.529 Q316.494 279.278 316.494 282.325 Q316.494 285.353 317.98 287.121 Q319.485 288.87 322.043 288.87 Q324.6 288.87 326.086 287.121 Q327.591 285.353 327.591 282.325 Q327.591 279.278 326.086 277.529 Q324.6 275.78 322.043 275.78 M329.585 263.874 L329.585 267.335 Q328.155 266.658 326.688 266.301 Q325.24 265.943 323.811 265.943 Q320.049 265.943 318.055 268.482 Q316.081 271.021 315.798 276.156 Q316.908 274.52 318.582 273.654 Q320.256 272.77 322.268 272.77 Q326.5 272.77 328.945 275.347 Q331.409 277.905 331.409 282.325 Q331.409 286.651 328.851 289.265 Q326.293 291.879 322.043 291.879 Q317.171 291.879 314.595 288.155 Q312.018 284.412 312.018 277.322 Q312.018 270.664 315.178 266.714 Q318.337 262.746 323.66 262.746 Q325.089 262.746 326.538 263.028 Q328.005 263.31 329.585 263.874 Z" fill="#000000" fill-rule="nonzero" fill-opacity="1" /><path clip-path="url(#clip470)" d="M14.1925 285.312 L79.3773 285.312 L79.3773 290.723 L14.1925 290.723 L14.1925 285.312 Z" fill="#000000" fill-rule="nonzero" fill-opacity="1" /><path clip-path="url(#clip470)" d="M22.818 254.756 L46.4666 263.477 L46.4666 246.003 L22.818 254.756 M16.4842 258.385 L16.4842 251.096 L64.0042 232.986 L64.0042 239.67 L51.8138 243.998 L51.8138 265.419 L64.0042 269.748 L64.0042 276.527 L16.4842 258.385 Z" fill="#000000" fill-rule="nonzero" fill-opacity="1" /><path clip-path="url(#clip470)" d="M14.1925 218.758 L79.3773 218.758 L79.3773 224.169 L14.1925 224.169 L14.1925 218.758 Z" fill="#000000" fill-rule="nonzero" fill-opacity="1" /><path clip-path="url(#clip470)" d="M39.1142 201.953 L39.1142 188.458 L42.7427 188.458 L42.7427 207.491 L39.2416 207.491 Q38.2549 206.409 36.4725 204.404 Q26.7648 193.455 23.7729 193.455 Q21.6722 193.455 20.3991 195.11 Q19.0941 196.765 19.0941 199.47 Q19.0941 201.125 19.667 203.067 Q20.2081 205.008 21.3221 207.3 L17.4072 207.3 Q16.516 204.849 16.0704 202.749 Q15.6248 200.616 15.6248 198.802 Q15.6248 194.187 17.7255 191.418 Q19.8262 188.648 23.2636 188.648 Q27.6878 188.648 36.7271 199.184 Q38.2549 200.966 39.1142 201.953 Z" fill="#000000" fill-rule="nonzero" fill-opacity="1" /><path clip-path="url(#clip470)" d="M953.898 82.7033 L947.862 67.1883 L935.426 89.8734 L926.636 89.8734 L944.217 57.7902 L936.844 38.7104 Q934.859 33.6063 928.621 33.6063 L926.636 33.6063 L926.636 27.2059 L929.471 27.2869 Q939.923 27.5705 942.556 34.3355 L948.551 49.8504 L960.987 27.1654 L969.778 27.1654 L952.197 59.2485 L959.569 78.3283 Q961.554 83.4324 967.793 83.4324 L969.778 83.4324 L969.778 89.8329 L966.942 89.7518 Q956.491 89.4683 953.898 82.7033 Z" fill="#000000" fill-rule="nonzero" fill-opacity="1" /><path clip-path="url(#clip470)" d="M1012.64 28.9478 L1012.64 35.9153 Q1009.48 34.1734 1006.28 33.3227 Q1003.12 32.4315 999.876 32.4315 Q992.625 32.4315 988.614 37.0496 Q984.604 41.6271 984.604 49.9314 Q984.604 58.2358 988.614 62.8538 Q992.625 67.4314 999.876 67.4314 Q1003.12 67.4314 1006.28 66.5807 Q1009.48 65.6895 1012.64 63.9476 L1012.64 70.8341 Q1009.52 72.2924 1006.15 73.0216 Q1002.83 73.7508 999.066 73.7508 Q988.817 73.7508 982.781 67.3098 Q976.745 60.8689 976.745 49.9314 Q976.745 38.832 982.822 32.472 Q988.939 26.1121 999.552 26.1121 Q1003 26.1121 1006.28 26.8413 Q1009.56 27.5299 1012.64 28.9478 Z" fill="#000000" fill-rule="nonzero" fill-opacity="1" /><path clip-path="url(#clip470)" d="M1028.07 65.6895 L1041.44 65.6895 L1041.44 19.5497 L1026.9 22.4663 L1026.9 15.0127 L1041.36 12.096 L1049.54 12.096 L1049.54 65.6895 L1062.91 65.6895 L1062.91 72.576 L1028.07 72.576 L1028.07 65.6895 Z" fill="#000000" fill-rule="nonzero" fill-opacity="1" /><path clip-path="url(#clip470)" d="M1096.29 9.62495 Q1090.86 18.942 1088.23 28.0566 Q1085.59 37.1711 1085.59 46.5287 Q1085.59 55.8863 1088.23 65.0818 Q1090.9 74.2369 1096.29 83.5134 L1089.81 83.5134 Q1083.73 73.9938 1080.69 64.7983 Q1077.69 55.6027 1077.69 46.5287 Q1077.69 37.4952 1080.69 28.3401 Q1083.69 19.1851 1089.81 9.62495 L1096.29 9.62495 Z" fill="#000000" fill-rule="nonzero" fill-opacity="1" /><path clip-path="url(#clip470)" d="M1136.59 39.9662 Q1142.47 41.222 1145.75 45.1919 Q1149.07 49.1618 1149.07 54.9951 Q1149.07 63.9476 1142.91 68.8492 Q1136.76 73.7508 1125.41 73.7508 Q1121.61 73.7508 1117.55 72.9811 Q1113.54 72.2519 1109.25 70.7531 L1109.25 62.8538 Q1112.65 64.8388 1116.7 65.8515 Q1120.75 66.8642 1125.17 66.8642 Q1132.87 66.8642 1136.88 63.826 Q1140.93 60.7879 1140.93 54.9951 Q1140.93 49.6479 1137.16 46.6502 Q1133.43 43.612 1126.75 43.612 L1119.7 43.612 L1119.7 36.8875 L1127.07 36.8875 Q1133.11 36.8875 1136.31 34.4975 Q1139.51 32.067 1139.51 27.5299 Q1139.51 22.8714 1136.19 20.4004 Q1132.91 17.8888 1126.75 17.8888 Q1123.39 17.8888 1119.54 18.618 Q1115.69 19.3471 1111.07 20.8865 L1111.07 13.5948 Q1115.73 12.2985 1119.78 11.6504 Q1123.87 11.0023 1127.48 11.0023 Q1136.8 11.0023 1142.22 15.2557 Q1147.65 19.4686 1147.65 26.6793 Q1147.65 31.7024 1144.78 35.1862 Q1141.9 38.6294 1136.59 39.9662 Z" fill="#000000" fill-rule="nonzero" fill-opacity="1" /><path clip-path="url(#clip470)" d="M1182.09 43.8551 Q1176.25 43.8551 1172.89 46.9743 Q1169.57 50.0935 1169.57 55.5622 Q1169.57 61.0309 1172.89 64.1501 Q1176.25 67.2693 1182.09 67.2693 Q1187.92 67.2693 1191.28 64.1501 Q1194.64 60.9904 1194.64 55.5622 Q1194.64 50.0935 1191.28 46.9743 Q1187.96 43.8551 1182.09 43.8551 M1173.9 40.3713 Q1168.64 39.075 1165.68 35.4697 Q1162.76 31.8644 1162.76 26.6793 Q1162.76 19.4281 1167.91 15.2152 Q1173.09 11.0023 1182.09 11.0023 Q1191.12 11.0023 1196.26 15.2152 Q1201.41 19.4281 1201.41 26.6793 Q1201.41 31.8644 1198.45 35.4697 Q1195.53 39.075 1190.31 40.3713 Q1196.22 41.7486 1199.5 45.759 Q1202.83 49.7694 1202.83 55.5622 Q1202.83 64.3527 1197.44 69.0517 Q1192.09 73.7508 1182.09 73.7508 Q1172.08 73.7508 1166.69 69.0517 Q1161.35 64.3527 1161.35 55.5622 Q1161.35 49.7694 1164.67 45.759 Q1167.99 41.7486 1173.9 40.3713 M1170.91 27.4489 Q1170.91 32.148 1173.82 34.7811 Q1176.78 37.4142 1182.09 37.4142 Q1187.35 37.4142 1190.31 34.7811 Q1193.31 32.148 1193.31 27.4489 Q1193.31 22.7499 1190.31 20.1168 Q1187.35 17.4837 1182.09 17.4837 Q1176.78 17.4837 1173.82 20.1168 Q1170.91 22.7499 1170.91 27.4489 Z" fill="#000000" fill-rule="nonzero" fill-opacity="1" /><path clip-path="url(#clip470)" d="M1215.3 12.096 L1254.19 12.096 L1254.19 15.5798 L1232.24 72.576 L1223.69 72.576 L1244.35 18.9825 L1215.3 18.9825 L1215.3 12.096 Z" fill="#000000" fill-rule="nonzero" fill-opacity="1" /><path clip-path="url(#clip470)" d="M1277.2 65.6895 L1305.76 65.6895 L1305.76 72.576 L1267.36 72.576 L1267.36 65.6895 Q1272.02 60.8689 1280.04 52.7671 Q1288.1 44.6248 1290.16 42.2752 Q1294.09 37.8598 1295.63 34.8216 Q1297.21 31.7429 1297.21 28.7857 Q1297.21 23.9651 1293.81 20.927 Q1290.45 17.8888 1285.02 17.8888 Q1281.17 17.8888 1276.88 19.2256 Q1272.62 20.5624 1267.76 23.2765 L1267.76 15.0127 Q1272.7 13.0277 1277 12.015 Q1281.29 11.0023 1284.86 11.0023 Q1294.26 11.0023 1299.85 15.7013 Q1305.44 20.4004 1305.44 28.2591 Q1305.44 31.9859 1304.02 35.3482 Q1302.64 38.6699 1298.95 43.2069 Q1297.94 44.3817 1292.51 50.0125 Q1287.09 55.6027 1277.2 65.6895 Z" fill="#000000" fill-rule="nonzero" fill-opacity="1" /><path clip-path="url(#clip470)" d="M1320.71 9.62495 L1327.19 9.62495 Q1333.27 19.1851 1336.26 28.3401 Q1339.3 37.4952 1339.3 46.5287 Q1339.3 55.6027 1336.26 64.7983 Q1333.27 73.9938 1327.19 83.5134 L1320.71 83.5134 Q1326.1 74.2369 1328.73 65.0818 Q1331.4 55.8863 1331.4 46.5287 Q1331.4 37.1711 1328.73 28.0566 Q1326.1 18.942 1320.71 9.62495 Z" fill="#000000" fill-rule="nonzero" fill-opacity="1" /><path clip-path="url(#clip470)" d="M1401.16 20.1573 L1390.06 50.2555 L1412.3 50.2555 L1401.16 20.1573 M1396.54 12.096 L1405.82 12.096 L1428.87 72.576 L1420.36 72.576 L1414.85 57.061 L1387.59 57.061 L1382.08 72.576 L1373.45 72.576 L1396.54 12.096 Z" fill="#000000" fill-rule="nonzero" fill-opacity="1" /><path clip-path="url(#clip470)" d="M1472.7 35.9153 Q1475.49 30.8922 1479.38 28.5022 Q1483.27 26.1121 1488.54 26.1121 Q1495.63 26.1121 1499.47 31.0947 Q1503.32 36.0368 1503.32 45.1919 L1503.32 72.576 L1495.83 72.576 L1495.83 45.4349 Q1495.83 38.913 1493.52 35.7533 Q1491.21 32.5936 1486.47 32.5936 Q1480.68 32.5936 1477.32 36.4419 Q1473.95 40.2903 1473.95 46.9338 L1473.95 72.576 L1466.46 72.576 L1466.46 45.4349 Q1466.46 38.8725 1464.15 35.7533 Q1461.84 32.5936 1457.02 32.5936 Q1451.31 32.5936 1447.95 36.4824 Q1444.58 40.3308 1444.58 46.9338 L1444.58 72.576 L1437.09 72.576 L1437.09 27.2059 L1444.58 27.2059 L1444.58 34.2544 Q1447.14 30.082 1450.7 28.0971 Q1454.27 26.1121 1459.17 26.1121 Q1464.11 26.1121 1467.55 28.6237 Q1471.04 31.1352 1472.7 35.9153 Z" fill="#000000" fill-rule="nonzero" fill-opacity="1" /><path clip-path="url(#clip470)" d="M1525.4 65.7705 L1525.4 89.8329 L1517.91 89.8329 L1517.91 27.2059 L1525.4 27.2059 L1525.4 34.0924 Q1527.75 30.0415 1531.31 28.0971 Q1534.92 26.1121 1539.9 26.1121 Q1548.17 26.1121 1553.31 32.6746 Q1558.5 39.2371 1558.5 49.9314 Q1558.5 60.6258 1553.31 67.1883 Q1548.17 73.7508 1539.9 73.7508 Q1534.92 73.7508 1531.31 71.8063 Q1527.75 69.8214 1525.4 65.7705 M1550.76 49.9314 Q1550.76 41.7081 1547.36 37.0496 Q1543.99 32.3505 1538.08 32.3505 Q1532.16 32.3505 1528.76 37.0496 Q1525.4 41.7081 1525.4 49.9314 Q1525.4 58.1548 1528.76 62.8538 Q1532.16 67.5124 1538.08 67.5124 Q1543.99 67.5124 1547.36 62.8538 Q1550.76 58.1548 1550.76 49.9314 Z" fill="#000000" fill-rule="nonzero" fill-opacity="1" /><path clip-path="url(#clip470)" d="M1570.85 9.54393 L1578.3 9.54393 L1578.3 72.576 L1570.85 72.576 L1570.85 9.54393 Z" fill="#000000" fill-rule="nonzero" fill-opacity="1" /><path clip-path="url(#clip470)" d="M1593.9 27.2059 L1601.35 27.2059 L1601.35 72.576 L1593.9 72.576 L1593.9 27.2059 M1593.9 9.54393 L1601.35 9.54393 L1601.35 18.9825 L1593.9 18.9825 L1593.9 9.54393 Z" fill="#000000" fill-rule="nonzero" fill-opacity="1" /><path clip-path="url(#clip470)" d="M1624.32 14.324 L1624.32 27.2059 L1639.68 27.2059 L1639.68 32.9987 L1624.32 32.9987 L1624.32 57.6282 Q1624.32 63.1779 1625.82 64.7578 Q1627.36 66.3376 1632.02 66.3376 L1639.68 66.3376 L1639.68 72.576 L1632.02 72.576 Q1623.39 72.576 1620.11 69.3758 Q1616.83 66.1351 1616.83 57.6282 L1616.83 32.9987 L1611.36 32.9987 L1611.36 27.2059 L1616.83 27.2059 L1616.83 14.324 L1624.32 14.324 Z" fill="#000000" fill-rule="nonzero" fill-opacity="1" /><path clip-path="url(#clip470)" d="M1648.71 54.671 L1648.71 27.2059 L1656.16 27.2059 L1656.16 54.3874 Q1656.16 60.8284 1658.67 64.0691 Q1661.19 67.2693 1666.21 67.2693 Q1672.25 67.2693 1675.73 63.421 Q1679.25 59.5726 1679.25 52.9291 L1679.25 27.2059 L1686.71 27.2059 L1686.71 72.576 L1679.25 72.576 L1679.25 65.6084 Q1676.54 69.7404 1672.93 71.7658 Q1669.37 73.7508 1664.63 73.7508 Q1656.81 73.7508 1652.76 68.8897 Q1648.71 64.0286 1648.71 54.671 M1667.47 26.1121 L1667.47 26.1121 Z" fill="#000000" fill-rule="nonzero" fill-opacity="1" /><path clip-path="url(#clip470)" d="M1731.91 34.0924 L1731.91 9.54393 L1739.37 9.54393 L1739.37 72.576 L1731.91 72.576 L1731.91 65.7705 Q1729.57 69.8214 1725.96 71.8063 Q1722.4 73.7508 1717.37 73.7508 Q1709.15 73.7508 1703.96 67.1883 Q1698.82 60.6258 1698.82 49.9314 Q1698.82 39.2371 1703.96 32.6746 Q1709.15 26.1121 1717.37 26.1121 Q1722.4 26.1121 1725.96 28.0971 Q1729.57 30.0415 1731.91 34.0924 M1706.52 49.9314 Q1706.52 58.1548 1709.88 62.8538 Q1713.28 67.5124 1719.2 67.5124 Q1725.11 67.5124 1728.51 62.8538 Q1731.91 58.1548 1731.91 49.9314 Q1731.91 41.7081 1728.51 37.0496 Q1725.11 32.3505 1719.2 32.3505 Q1713.28 32.3505 1709.88 37.0496 Q1706.52 41.7081 1706.52 49.9314 Z" fill="#000000" fill-rule="nonzero" fill-opacity="1" /><path clip-path="url(#clip470)" d="M1793.53 48.0275 L1793.53 51.6733 L1759.26 51.6733 Q1759.74 59.3701 1763.88 63.421 Q1768.05 67.4314 1775.46 67.4314 Q1779.76 67.4314 1783.77 66.3781 Q1787.82 65.3249 1791.79 63.2184 L1791.79 70.267 Q1787.78 71.9684 1783.56 72.8596 Q1779.35 73.7508 1775.02 73.7508 Q1764.16 73.7508 1757.8 67.4314 Q1751.48 61.1119 1751.48 50.3365 Q1751.48 39.1965 1757.48 32.6746 Q1763.51 26.1121 1773.72 26.1121 Q1782.88 26.1121 1788.18 32.0264 Q1793.53 37.9003 1793.53 48.0275 M1786.08 45.84 Q1785.99 39.7232 1782.63 36.0774 Q1779.31 32.4315 1773.8 32.4315 Q1767.56 32.4315 1763.8 35.9558 Q1760.07 39.4801 1759.5 45.8805 L1786.08 45.84 Z" fill="#000000" fill-rule="nonzero" fill-opacity="1" /><path clip-path="url(#clip471)" d="M367.409 1392.28 L371.388 1392.09 L375.366 1391.9 L379.345 1391.71 L383.323 1391.52 L387.302 1391.33 L391.281 1391.13 L395.259 1390.93 L399.238 1390.73 L403.217 1390.53 L407.195 1390.33 L411.174 1390.12 L415.153 1389.91 L419.131 1389.7 L423.11 1389.49 L427.089 1389.28 L431.067 1389.06 L435.046 1388.84 L439.025 1388.62 L443.003 1388.39 L446.982 1388.17 L450.961 1387.94 L454.939 1387.71 L458.918 1387.47 L462.897 1387.24 L466.875 1387 L470.854 1386.76 L474.832 1386.52 L478.811 1386.27 L482.79 1386.02 L486.768 1385.77 L490.747 1385.51 L494.726 1385.26 L498.704 1385 L502.683 1384.73 L506.662 1384.47 L510.64 1384.2 L514.619 1383.92 L518.598 1383.65 L522.576 1383.37 L526.555 1383.09 L530.534 1382.8 L534.512 1382.51 L538.491 1382.22 L542.47 1381.93 L546.448 1381.63 L550.427 1381.33 L554.405 1381.02 L558.384 1380.71 L562.363 1380.4 L566.341 1380.08 L570.32 1379.76 L574.299 1379.43 L578.277 1379.1 L582.256 1378.77 L586.235 1378.43 L590.213 1378.09 L594.192 1377.75 L598.171 1377.4 L602.149 1377.04 L606.128 1376.68 L610.107 1376.32 L614.085 1375.95 L618.064 1375.58 L622.043 1375.2 L626.021 1374.82 L630 1374.43 L633.979 1374.04 L637.957 1373.64 L641.936 1373.24 L645.914 1372.83 L649.893 1372.41 L653.872 1371.99 L657.85 1371.57 L661.829 1371.14 L665.808 1370.7 L669.786 1370.26 L673.765 1369.81 L677.744 1369.35 L681.722 1368.89 L685.701 1368.42 L689.68 1367.95 L693.658 1367.46 L697.637 1366.97 L701.616 1366.48 L705.594 1365.98 L709.573 1365.47 L713.552 1364.95 L717.53 1364.42 L721.509 1363.89 L725.488 1363.35 L729.466 1362.8 L733.445 1362.24 L737.423 1361.67 L741.402 1361.1 L745.381 1360.51 L749.359 1359.92 L753.338 1359.32 L757.317 1358.71 L761.295 1358.09 L765.274 1357.46 L769.253 1356.81 L773.231 1356.16 L777.21 1355.5 L781.189 1354.83 L785.167 1354.15 L789.146 1353.45 L793.125 1352.74 L797.103 1352.03 L801.082 1351.3 L805.061 1350.55 L809.039 1349.8 L813.018 1349.03 L816.996 1348.25 L820.975 1347.45 L824.954 1346.64 L828.932 1345.82 L832.911 1344.98 L836.89 1344.13 L840.868 1343.26 L844.847 1342.38 L848.826 1341.48 L852.804 1340.56 L856.783 1339.63 L860.762 1338.68 L864.74 1337.71 L868.719 1336.72 L872.698 1335.72 L876.676 1334.69 L880.655 1333.65 L884.634 1332.59 L888.612 1331.5 L892.591 1330.39 L896.57 1329.26 L900.548 1328.11 L904.527 1326.94 L908.505 1325.74 L912.484 1324.51 L916.463 1323.26 L920.441 1321.99 L924.42 1320.69 L928.399 1319.36 L932.377 1318 L936.356 1316.61 L940.335 1315.19 L944.313 1313.75 L948.292 1312.26 L952.271 1310.75 L956.249 1309.2 L960.228 1307.62 L964.207 1306 L968.185 1304.34 L972.164 1302.65 L976.143 1300.91 L980.121 1299.14 L984.1 1297.32 L988.078 1295.46 L992.057 1293.55 L996.036 1291.59 L1000.01 1289.59 L1003.99 1287.53 L1007.97 1285.43 L1011.95 1283.27 L1015.93 1281.05 L1019.91 1278.78 L1023.89 1276.44 L1027.87 1274.05 L1031.84 1271.59 L1035.82 1269.06 L1039.8 1266.46 L1043.78 1263.8 L1047.76 1261.05 L1051.74 1258.23 L1055.72 1255.33 L1059.69 1252.34 L1063.67 1249.27 L1067.65 1246.11 L1071.63 1242.85 L1075.61 1239.49 L1079.59 1236.03 L1083.57 1232.46 L1087.54 1228.78 L1091.52 1224.99 L1095.5 1221.07 L1099.48 1217.03 L1103.46 1212.85 L1107.44 1208.53 L1111.42 1204.07 L1115.4 1199.46 L1119.37 1194.69 L1123.35 1189.75 L1127.33 1184.64 L1131.31 1179.35 L1135.29 1173.86 L1139.27 1168.17 L1143.25 1162.27 L1147.22 1156.15 L1151.2 1149.8 L1155.18 1143.2 L1159.16 1136.34 L1163.14 1129.21 L1167.12 1121.79 L1171.1 1114.07 L1175.08 1106.03 L1179.05 1097.66 L1183.03 1088.92 L1187.01 1079.82 L1190.99 1070.31 L1194.97 1060.39 L1198.95 1050.01 L1202.93 1039.17 L1206.9 1027.83 L1210.88 1015.96 L1214.86 1003.53 L1218.84 990.498 L1222.82 976.837 L1226.8 962.506 L1230.78 947.462 L1234.75 931.663 L1238.73 915.06 L1242.71 897.605 L1246.69 879.247 L1250.67 859.93 L1254.65 839.598 L1258.63 818.191 L1262.61 795.65 L1266.58 771.912 L1270.56 746.917 L1274.54 720.606 L1278.52 692.921 L1282.5 663.813 L1286.48 633.241 L1290.46 601.18 L1294.43 567.623 L1298.41 532.591 L1302.39 496.145 L1306.37 458.396 L1310.35 419.522 L1314.33 379.792 L1318.31 339.589 L1322.29 299.45 L1326.26 260.103 L1330.24 222.528 L1334.22 188.028 L1338.2 158.331 L1342.18 135.752 L1346.16 123.472 L1350.14 126.192 L1354.11 152.118 L1358.09 223.867 L1362.07 609.385 L1366.05 746.019 L1370.03 822.487 L1374.01 876.158 L1377.99 917.371 L1381.96 950.657 L1385.94 978.439 L1389.92 1002.18 L1393.9 1022.82 L1397.88 1041.01 L1401.86 1057.23 L1405.84 1071.82 L1409.82 1085.04 L1413.79 1097.11 L1417.77 1108.18 L1421.75 1118.39 L1425.73 1127.85 L1429.71 1136.64 L1433.69 1144.85 L1437.67 1152.53 L1441.64 1159.74 L1445.62 1166.52 L1449.6 1172.92 L1453.58 1178.98 L1457.56 1184.71 L1461.54 1190.15 L1465.52 1195.33 L1469.5 1200.26 L1473.47 1204.96 L1477.45 1209.45 L1481.43 1213.74 L1485.41 1217.85 L1489.39 1221.79 L1493.37 1225.58 L1497.35 1229.21 L1501.32 1232.71 L1505.3 1236.07 L1509.28 1239.31 L1513.26 1242.44 L1517.24 1245.46 L1521.22 1248.37 L1525.2 1251.19 L1529.18 1253.92 L1533.15 1256.55 L1537.13 1259.11 L1541.11 1261.58 L1545.09 1263.98 L1549.07 1266.31 L1553.05 1268.57 L1557.03 1270.77 L1561 1272.9 L1564.98 1274.98 L1568.96 1277 L1572.94 1278.96 L1576.92 1280.87 L1580.9 1282.73 L1584.88 1284.55 L1588.85 1286.32 L1592.83 1288.04 L1596.81 1289.73 L1600.79 1291.37 L1604.77 1292.97 L1608.75 1294.54 L1612.73 1296.07 L1616.71 1297.56 L1620.68 1299.02 L1624.66 1300.45 L1628.64 1301.85 L1632.62 1303.21 L1636.6 1304.55 L1640.58 1305.86 L1644.56 1307.14 L1648.53 1308.4 L1652.51 1309.63 L1656.49 1310.83 L1660.47 1312.01 L1664.45 1313.17 L1668.43 1314.3 L1672.41 1315.42 L1676.39 1316.51 L1680.36 1317.58 L1684.34 1318.63 L1688.32 1319.67 L1692.3 1320.68 L1696.28 1321.67 L1700.26 1322.65 L1704.24 1323.61 L1708.21 1324.55 L1712.19 1325.48 L1716.17 1326.39 L1720.15 1327.29 L1724.13 1328.17 L1728.11 1329.03 L1732.09 1329.88 L1736.06 1330.72 L1740.04 1331.54 L1744.02 1332.35 L1748 1333.15 L1751.98 1333.94 L1755.96 1334.71 L1759.94 1335.47 L1763.92 1336.22 L1767.89 1336.95 L1771.87 1337.68 L1775.85 1338.39 L1779.83 1339.1 L1783.81 1339.79 L1787.79 1340.48 L1791.77 1341.15 L1795.74 1341.81 L1799.72 1342.47 L1803.7 1343.11 L1807.68 1343.75 L1811.66 1344.38 L1815.64 1344.99 L1819.62 1345.6 L1823.6 1346.21 L1827.57 1346.8 L1831.55 1347.38 L1835.53 1347.96 L1839.51 1348.53 L1843.49 1349.09 L1847.47 1349.65 L1851.45 1350.19 L1855.42 1350.73 L1859.4 1351.27 L1863.38 1351.79 L1867.36 1352.31 L1871.34 1352.83 L1875.32 1353.33 L1879.3 1353.84 L1883.28 1354.33 L1887.25 1354.82 L1891.23 1355.3 L1895.21 1355.78 L1899.19 1356.25 L1903.17 1356.71 L1907.15 1357.17 L1911.13 1357.63 L1915.1 1358.07 L1919.08 1358.52 L1923.06 1358.96 L1927.04 1359.39 L1931.02 1359.82 L1935 1360.24 L1938.98 1360.66 L1942.95 1361.07 L1946.93 1361.48 L1950.91 1361.89 L1954.89 1362.29 L1958.87 1362.68 L1962.85 1363.07 L1966.83 1363.46 L1970.81 1363.84 L1974.78 1364.22 L1978.76 1364.6 L1982.74 1364.97 L1986.72 1365.33 L1990.7 1365.7 L1994.68 1366.06 L1998.66 1366.41 L2002.63 1366.76 L2006.61 1367.11 L2010.59 1367.45 L2014.57 1367.8 L2018.55 1368.13 L2022.53 1368.47 L2026.51 1368.8 L2030.49 1369.12 L2034.46 1369.45 L2038.44 1369.77 L2042.42 1370.09 L2046.4 1370.4 L2050.38 1370.71 L2054.36 1371.02 L2058.34 1371.33 L2062.31 1371.63 L2066.29 1371.93 L2070.27 1372.22 L2074.25 1372.52 L2078.23 1372.81 L2082.21 1373.1 L2086.19 1373.38 L2090.16 1373.66 L2094.14 1373.94 L2098.12 1374.22 L2102.1 1374.5 L2106.08 1374.77 L2110.06 1375.04 L2114.04 1375.31 L2118.02 1375.57 L2121.99 1375.83 L2125.97 1376.09 L2129.95 1376.35 L2133.93 1376.61 L2137.91 1376.86 L2141.89 1377.11 L2145.87 1377.36 L2149.84 1377.61 L2153.82 1377.85 L2157.8 1378.09 L2161.78 1378.33 L2165.76 1378.57 L2169.74 1378.81 L2173.72 1379.04 L2177.7 1379.27 L2181.67 1379.5 L2185.65 1379.73 L2189.63 1379.96 L2193.61 1380.18 L2197.59 1380.41 L2201.57 1380.63 L2205.55 1380.85 L2209.52 1381.06 L2213.5 1381.28 L2217.48 1381.49 L2221.46 1381.7 L2225.44 1381.91 L2229.42 1382.12 L2233.4 1382.33 L2237.38 1382.53 L2241.35 1382.74 L2245.33 1382.94 L2249.31 1383.14 L2253.29 1383.34 L2257.27 1383.53 L2261.25 1383.73 L2265.23 1383.92 L2269.2 1384.11 L2273.18 1384.3 L2277.16 1384.49 L2281.14 1384.68 L2285.12 1384.87 L2289.1 1385.05 L2293.08 1385.24 L2297.05 1385.42 L2301.03 1385.6 L2305.01 1385.78 L2308.99 1385.96 L2312.97 1386.13 L2316.95 1386.31 L2320.93 1386.48 L2324.91 1386.66 L2328.88 1386.83 L2332.86 1387 L2336.84 1387.17 L2340.82 1387.33 L2344.8 1387.5 L2348.78 1387.67 L2352.76 1387.83 L2352.76 1423.18 L2348.78 1423.18 L2344.8 1423.18 L2340.82 1423.18 L2336.84 1423.18 L2332.86 1423.18 L2328.88 1423.18 L2324.91 1423.18 L2320.93 1423.18 L2316.95 1423.18 L2312.97 1423.18 L2308.99 1423.18 L2305.01 1423.18 L2301.03 1423.18 L2297.05 1423.18 L2293.08 1423.18 L2289.1 1423.18 L2285.12 1423.18 L2281.14 1423.18 L2277.16 1423.18 L2273.18 1423.18 L2269.2 1423.18 L2265.23 1423.18 L2261.25 1423.18 L2257.27 1423.18 L2253.29 1423.18 L2249.31 1423.18 L2245.33 1423.18 L2241.35 1423.18 L2237.38 1423.18 L2233.4 1423.18 L2229.42 1423.18 L2225.44 1423.18 L2221.46 1423.18 L2217.48 1423.18 L2213.5 1423.18 L2209.52 1423.18 L2205.55 1423.18 L2201.57 1423.18 L2197.59 1423.18 L2193.61 1423.18 L2189.63 1423.18 L2185.65 1423.18 L2181.67 1423.18 L2177.7 1423.18 L2173.72 1423.18 L2169.74 1423.18 L2165.76 1423.18 L2161.78 1423.18 L2157.8 1423.18 L2153.82 1423.18 L2149.84 1423.18 L2145.87 1423.18 L2141.89 1423.18 L2137.91 1423.18 L2133.93 1423.18 L2129.95 1423.18 L2125.97 1423.18 L2121.99 1423.18 L2118.02 1423.18 L2114.04 1423.18 L2110.06 1423.18 L2106.08 1423.18 L2102.1 1423.18 L2098.12 1423.18 L2094.14 1423.18 L2090.16 1423.18 L2086.19 1423.18 L2082.21 1423.18 L2078.23 1423.18 L2074.25 1423.18 L2070.27 1423.18 L2066.29 1423.18 L2062.31 1423.18 L2058.34 1423.18 L2054.36 1423.18 L2050.38 1423.18 L2046.4 1423.18 L2042.42 1423.18 L2038.44 1423.18 L2034.46 1423.18 L2030.49 1423.18 L2026.51 1423.18 L2022.53 1423.18 L2018.55 1423.18 L2014.57 1423.18 L2010.59 1423.18 L2006.61 1423.18 L2002.63 1423.18 L1998.66 1423.18 L1994.68 1423.18 L1990.7 1423.18 L1986.72 1423.18 L1982.74 1423.18 L1978.76 1423.18 L1974.78 1423.18 L1970.81 1423.18 L1966.83 1423.18 L1962.85 1423.18 L1958.87 1423.18 L1954.89 1423.18 L1950.91 1423.18 L1946.93 1423.18 L1942.95 1423.18 L1938.98 1423.18 L1935 1423.18 L1931.02 1423.18 L1927.04 1423.18 L1923.06 1423.18 L1919.08 1423.18 L1915.1 1423.18 L1911.13 1423.18 L1907.15 1423.18 L1903.17 1423.18 L1899.19 1423.18 L1895.21 1423.18 L1891.23 1423.18 L1887.25 1423.18 L1883.28 1423.18 L1879.3 1423.18 L1875.32 1423.18 L1871.34 1423.18 L1867.36 1423.18 L1863.38 1423.18 L1859.4 1423.18 L1855.42 1423.18 L1851.45 1423.18 L1847.47 1423.18 L1843.49 1423.18 L1839.51 1423.18 L1835.53 1423.18 L1831.55 1423.18 L1827.57 1423.18 L1823.6 1423.18 L1819.62 1423.18 L1815.64 1423.18 L1811.66 1423.18 L1807.68 1423.18 L1803.7 1423.18 L1799.72 1423.18 L1795.74 1423.18 L1791.77 1423.18 L1787.79 1423.18 L1783.81 1423.18 L1779.83 1423.18 L1775.85 1423.18 L1771.87 1423.18 L1767.89 1423.18 L1763.92 1423.18 L1759.94 1423.18 L1755.96 1423.18 L1751.98 1423.18 L1748 1423.18 L1744.02 1423.18 L1740.04 1423.18 L1736.06 1423.18 L1732.09 1423.18 L1728.11 1423.18 L1724.13 1423.18 L1720.15 1423.18 L1716.17 1423.18 L1712.19 1423.18 L1708.21 1423.18 L1704.24 1423.18 L1700.26 1423.18 L1696.28 1423.18 L1692.3 1423.18 L1688.32 1423.18 L1684.34 1423.18 L1680.36 1423.18 L1676.39 1423.18 L1672.41 1423.18 L1668.43 1423.18 L1664.45 1423.18 L1660.47 1423.18 L1656.49 1423.18 L1652.51 1423.18 L1648.53 1423.18 L1644.56 1423.18 L1640.58 1423.18 L1636.6 1423.18 L1632.62 1423.18 L1628.64 1423.18 L1624.66 1423.18 L1620.68 1423.18 L1616.71 1423.18 L1612.73 1423.18 L1608.75 1423.18 L1604.77 1423.18 L1600.79 1423.18 L1596.81 1423.18 L1592.83 1423.18 L1588.85 1423.18 L1584.88 1423.18 L1580.9 1423.18 L1576.92 1423.18 L1572.94 1423.18 L1568.96 1423.18 L1564.98 1423.18 L1561 1423.18 L1557.03 1423.18 L1553.05 1423.18 L1549.07 1423.18 L1545.09 1423.18 L1541.11 1423.18 L1537.13 1423.18 L1533.15 1423.18 L1529.18 1423.18 L1525.2 1423.18 L1521.22 1423.18 L1517.24 1423.18 L1513.26 1423.18 L1509.28 1423.18 L1505.3 1423.18 L1501.32 1423.18 L1497.35 1423.18 L1493.37 1423.18 L1489.39 1423.18 L1485.41 1423.18 L1481.43 1423.18 L1477.45 1423.18 L1473.47 1423.18 L1469.5 1423.18 L1465.52 1423.18 L1461.54 1423.18 L1457.56 1423.18 L1453.58 1423.18 L1449.6 1423.18 L1445.62 1423.18 L1441.64 1423.18 L1437.67 1423.18 L1433.69 1423.18 L1429.71 1423.18 L1425.73 1423.18 L1421.75 1423.18 L1417.77 1423.18 L1413.79 1423.18 L1409.82 1423.18 L1405.84 1423.18 L1401.86 1423.18 L1397.88 1423.18 L1393.9 1423.18 L1389.92 1423.18 L1385.94 1423.18 L1381.96 1423.18 L1377.99 1423.18 L1374.01 1423.18 L1370.03 1423.18 L1366.05 1423.18 L1362.07 1423.18 L1358.09 1423.18 L1354.11 1423.18 L1350.14 1423.18 L1346.16 1423.18 L1342.18 1423.18 L1338.2 1423.18 L1334.22 1423.18 L1330.24 1423.18 L1326.26 1423.18 L1322.29 1423.18 L1318.31 1423.18 L1314.33 1423.18 L1310.35 1423.18 L1306.37 1423.18 L1302.39 1423.18 L1298.41 1423.18 L1294.43 1423.18 L1290.46 1423.18 L1286.48 1423.18 L1282.5 1423.18 L1278.52 1423.18 L1274.54 1423.18 L1270.56 1423.18 L1266.58 1423.18 L1262.61 1423.18 L1258.63 1423.18 L1254.65 1423.18 L1250.67 1423.18 L1246.69 1423.18 L1242.71 1423.18 L1238.73 1423.18 L1234.75 1423.18 L1230.78 1423.18 L1226.8 1423.18 L1222.82 1423.18 L1218.84 1423.18 L1214.86 1423.18 L1210.88 1423.18 L1206.9 1423.18 L1202.93 1423.18 L1198.95 1423.18 L1194.97 1423.18 L1190.99 1423.18 L1187.01 1423.18 L1183.03 1423.18 L1179.05 1423.18 L1175.08 1423.18 L1171.1 1423.18 L1167.12 1423.18 L1163.14 1423.18 L1159.16 1423.18 L1155.18 1423.18 L1151.2 1423.18 L1147.22 1423.18 L1143.25 1423.18 L1139.27 1423.18 L1135.29 1423.18 L1131.31 1423.18 L1127.33 1423.18 L1123.35 1423.18 L1119.37 1423.18 L1115.4 1423.18 L1111.42 1423.18 L1107.44 1423.18 L1103.46 1423.18 L1099.48 1423.18 L1095.5 1423.18 L1091.52 1423.18 L1087.54 1423.18 L1083.57 1423.18 L1079.59 1423.18 L1075.61 1423.18 L1071.63 1423.18 L1067.65 1423.18 L1063.67 1423.18 L1059.69 1423.18 L1055.72 1423.18 L1051.74 1423.18 L1047.76 1423.18 L1043.78 1423.18 L1039.8 1423.18 L1035.82 1423.18 L1031.84 1423.18 L1027.87 1423.18 L1023.89 1423.18 L1019.91 1423.18 L1015.93 1423.18 L1011.95 1423.18 L1007.97 1423.18 L1003.99 1423.18 L1000.01 1423.18 L996.036 1423.18 L992.057 1423.18 L988.078 1423.18 L984.1 1423.18 L980.121 1423.18 L976.143 1423.18 L972.164 1423.18 L968.185 1423.18 L964.207 1423.18 L960.228 1423.18 L956.249 1423.18 L952.271 1423.18 L948.292 1423.18 L944.313 1423.18 L940.335 1423.18 L936.356 1423.18 L932.377 1423.18 L928.399 1423.18 L924.42 1423.18 L920.441 1423.18 L916.463 1423.18 L912.484 1423.18 L908.505 1423.18 L904.527 1423.18 L900.548 1423.18 L896.57 1423.18 L892.591 1423.18 L888.612 1423.18 L884.634 1423.18 L880.655 1423.18 L876.676 1423.18 L872.698 1423.18 L868.719 1423.18 L864.74 1423.18 L860.762 1423.18 L856.783 1423.18 L852.804 1423.18 L848.826 1423.18 L844.847 1423.18 L840.868 1423.18 L836.89 1423.18 L832.911 1423.18 L828.932 1423.18 L824.954 1423.18 L820.975 1423.18 L816.996 1423.18 L813.018 1423.18 L809.039 1423.18 L805.061 1423.18 L801.082 1423.18 L797.103 1423.18 L793.125 1423.18 L789.146 1423.18 L785.167 1423.18 L781.189 1423.18 L777.21 1423.18 L773.231 1423.18 L769.253 1423.18 L765.274 1423.18 L761.295 1423.18 L757.317 1423.18 L753.338 1423.18 L749.359 1423.18 L745.381 1423.18 L741.402 1423.18 L737.423 1423.18 L733.445 1423.18 L729.466 1423.18 L725.488 1423.18 L721.509 1423.18 L717.53 1423.18 L713.552 1423.18 L709.573 1423.18 L705.594 1423.18 L701.616 1423.18 L697.637 1423.18 L693.658 1423.18 L689.68 1423.18 L685.701 1423.18 L681.722 1423.18 L677.744 1423.18 L673.765 1423.18 L669.786 1423.18 L665.808 1423.18 L661.829 1423.18 L657.85 1423.18 L653.872 1423.18 L649.893 1423.18 L645.914 1423.18 L641.936 1423.18 L637.957 1423.18 L633.979 1423.18 L630 1423.18 L626.021 1423.18 L622.043 1423.18 L618.064 1423.18 L614.085 1423.18 L610.107 1423.18 L606.128 1423.18 L602.149 1423.18 L598.171 1423.18 L594.192 1423.18 L590.213 1423.18 L586.235 1423.18 L582.256 1423.18 L578.277 1423.18 L574.299 1423.18 L570.32 1423.18 L566.341 1423.18 L562.363 1423.18 L558.384 1423.18 L554.405 1423.18 L550.427 1423.18 L546.448 1423.18 L542.47 1423.18 L538.491 1423.18 L534.512 1423.18 L530.534 1423.18 L526.555 1423.18 L522.576 1423.18 L518.598 1423.18 L514.619 1423.18 L510.64 1423.18 L506.662 1423.18 L502.683 1423.18 L498.704 1423.18 L494.726 1423.18 L490.747 1423.18 L486.768 1423.18 L482.79 1423.18 L478.811 1423.18 L474.832 1423.18 L470.854 1423.18 L466.875 1423.18 L462.897 1423.18 L458.918 1423.18 L454.939 1423.18 L450.961 1423.18 L446.982 1423.18 L443.003 1423.18 L439.025 1423.18 L435.046 1423.18 L431.067 1423.18 L427.089 1423.18 L423.11 1423.18 L419.131 1423.18 L415.153 1423.18 L411.174 1423.18 L407.195 1423.18 L403.217 1423.18 L399.238 1423.18 L395.259 1423.18 L391.281 1423.18 L387.302 1423.18 L383.323 1423.18 L379.345 1423.18 L375.366 1423.18 L371.388 1423.18 L367.409 1423.18  Z" fill="#000000" fill-rule="evenodd" fill-opacity="0.2"/>
<polyline clip-path="url(#clip471)" style="stroke:#000000; stroke-linecap:round; stroke-linejoin:round; stroke-width:4; stroke-opacity:1; fill:none" points="367.409,1392.28 371.388,1392.09 375.366,1391.9 379.345,1391.71 383.323,1391.52 387.302,1391.33 391.281,1391.13 395.259,1390.93 399.238,1390.73 403.217,1390.53 407.195,1390.33 411.174,1390.12 415.153,1389.91 419.131,1389.7 423.11,1389.49 427.089,1389.28 431.067,1389.06 435.046,1388.84 439.025,1388.62 443.003,1388.39 446.982,1388.17 450.961,1387.94 454.939,1387.71 458.918,1387.47 462.897,1387.24 466.875,1387 470.854,1386.76 474.832,1386.52 478.811,1386.27 482.79,1386.02 486.768,1385.77 490.747,1385.51 494.726,1385.26 498.704,1385 502.683,1384.73 506.662,1384.47 510.64,1384.2 514.619,1383.92 518.598,1383.65 522.576,1383.37 526.555,1383.09 530.534,1382.8 534.512,1382.51 538.491,1382.22 542.47,1381.93 546.448,1381.63 550.427,1381.33 554.405,1381.02 558.384,1380.71 562.363,1380.4 566.341,1380.08 570.32,1379.76 574.299,1379.43 578.277,1379.1 582.256,1378.77 586.235,1378.43 590.213,1378.09 594.192,1377.75 598.171,1377.4 602.149,1377.04 606.128,1376.68 610.107,1376.32 614.085,1375.95 618.064,1375.58 622.043,1375.2 626.021,1374.82 630,1374.43 633.979,1374.04 637.957,1373.64 641.936,1373.24 645.914,1372.83 649.893,1372.41 653.872,1371.99 657.85,1371.57 661.829,1371.14 665.808,1370.7 669.786,1370.26 673.765,1369.81 677.744,1369.35 681.722,1368.89 685.701,1368.42 689.68,1367.95 693.658,1367.46 697.637,1366.97 701.616,1366.48 705.594,1365.98 709.573,1365.47 713.552,1364.95 717.53,1364.42 721.509,1363.89 725.488,1363.35 729.466,1362.8 733.445,1362.24 737.423,1361.67 741.402,1361.1 745.381,1360.51 749.359,1359.92 753.338,1359.32 757.317,1358.71 761.295,1358.09 765.274,1357.46 769.253,1356.81 773.231,1356.16 777.21,1355.5 781.189,1354.83 785.167,1354.15 789.146,1353.45 793.125,1352.74 797.103,1352.03 801.082,1351.3 805.061,1350.55 809.039,1349.8 813.018,1349.03 816.996,1348.25 820.975,1347.45 824.954,1346.64 828.932,1345.82 832.911,1344.98 836.89,1344.13 840.868,1343.26 844.847,1342.38 848.826,1341.48 852.804,1340.56 856.783,1339.63 860.762,1338.68 864.74,1337.71 868.719,1336.72 872.698,1335.72 876.676,1334.69 880.655,1333.65 884.634,1332.59 888.612,1331.5 892.591,1330.39 896.57,1329.26 900.548,1328.11 904.527,1326.94 908.505,1325.74 912.484,1324.51 916.463,1323.26 920.441,1321.99 924.42,1320.69 928.399,1319.36 932.377,1318 936.356,1316.61 940.335,1315.19 944.313,1313.75 948.292,1312.26 952.271,1310.75 956.249,1309.2 960.228,1307.62 964.207,1306 968.185,1304.34 972.164,1302.65 976.143,1300.91 980.121,1299.14 984.1,1297.32 988.078,1295.46 992.057,1293.55 996.036,1291.59 1000.01,1289.59 1003.99,1287.53 1007.97,1285.43 1011.95,1283.27 1015.93,1281.05 1019.91,1278.78 1023.89,1276.44 1027.87,1274.05 1031.84,1271.59 1035.82,1269.06 1039.8,1266.46 1043.78,1263.8 1047.76,1261.05 1051.74,1258.23 1055.72,1255.33 1059.69,1252.34 1063.67,1249.27 1067.65,1246.11 1071.63,1242.85 1075.61,1239.49 1079.59,1236.03 1083.57,1232.46 1087.54,1228.78 1091.52,1224.99 1095.5,1221.07 1099.48,1217.03 1103.46,1212.85 1107.44,1208.53 1111.42,1204.07 1115.4,1199.46 1119.37,1194.69 1123.35,1189.75 1127.33,1184.64 1131.31,1179.35 1135.29,1173.86 1139.27,1168.17 1143.25,1162.27 1147.22,1156.15 1151.2,1149.8 1155.18,1143.2 1159.16,1136.34 1163.14,1129.21 1167.12,1121.79 1171.1,1114.07 1175.08,1106.03 1179.05,1097.66 1183.03,1088.92 1187.01,1079.82 1190.99,1070.31 1194.97,1060.39 1198.95,1050.01 1202.93,1039.17 1206.9,1027.83 1210.88,1015.96 1214.86,1003.53 1218.84,990.498 1222.82,976.837 1226.8,962.506 1230.78,947.462 1234.75,931.663 1238.73,915.06 1242.71,897.605 1246.69,879.247 1250.67,859.93 1254.65,839.598 1258.63,818.191 1262.61,795.65 1266.58,771.912 1270.56,746.917 1274.54,720.606 1278.52,692.921 1282.5,663.813 1286.48,633.241 1290.46,601.18 1294.43,567.623 1298.41,532.591 1302.39,496.145 1306.37,458.396 1310.35,419.522 1314.33,379.792 1318.31,339.589 1322.29,299.45 1326.26,260.103 1330.24,222.528 1334.22,188.028 1338.2,158.331 1342.18,135.752 1346.16,123.472 1350.14,126.192 1354.11,152.118 1358.09,223.867 1362.07,609.385 1366.05,746.019 1370.03,822.487 1374.01,876.158 1377.99,917.371 1381.96,950.657 1385.94,978.439 1389.92,1002.18 1393.9,1022.82 1397.88,1041.01 1401.86,1057.23 1405.84,1071.82 1409.82,1085.04 1413.79,1097.11 1417.77,1108.18 1421.75,1118.39 1425.73,1127.85 1429.71,1136.64 1433.69,1144.85 1437.67,1152.53 1441.64,1159.74 1445.62,1166.52 1449.6,1172.92 1453.58,1178.98 1457.56,1184.71 1461.54,1190.15 1465.52,1195.33 1469.5,1200.26 1473.47,1204.96 1477.45,1209.45 1481.43,1213.74 1485.41,1217.85 1489.39,1221.79 1493.37,1225.58 1497.35,1229.21 1501.32,1232.71 1505.3,1236.07 1509.28,1239.31 1513.26,1242.44 1517.24,1245.46 1521.22,1248.37 1525.2,1251.19 1529.18,1253.92 1533.15,1256.55 1537.13,1259.11 1541.11,1261.58 1545.09,1263.98 1549.07,1266.31 1553.05,1268.57 1557.03,1270.77 1561,1272.9 1564.98,1274.98 1568.96,1277 1572.94,1278.96 1576.92,1280.87 1580.9,1282.73 1584.88,1284.55 1588.85,1286.32 1592.83,1288.04 1596.81,1289.73 1600.79,1291.37 1604.77,1292.97 1608.75,1294.54 1612.73,1296.07 1616.71,1297.56 1620.68,1299.02 1624.66,1300.45 1628.64,1301.85 1632.62,1303.21 1636.6,1304.55 1640.58,1305.86 1644.56,1307.14 1648.53,1308.4 1652.51,1309.63 1656.49,1310.83 1660.47,1312.01 1664.45,1313.17 1668.43,1314.3 1672.41,1315.42 1676.39,1316.51 1680.36,1317.58 1684.34,1318.63 1688.32,1319.67 1692.3,1320.68 1696.28,1321.67 1700.26,1322.65 1704.24,1323.61 1708.21,1324.55 1712.19,1325.48 1716.17,1326.39 1720.15,1327.29 1724.13,1328.17 1728.11,1329.03 1732.09,1329.88 1736.06,1330.72 1740.04,1331.54 1744.02,1332.35 1748,1333.15 1751.98,1333.94 1755.96,1334.71 1759.94,1335.47 1763.92,1336.22 1767.89,1336.95 1771.87,1337.68 1775.85,1338.39 1779.83,1339.1 1783.81,1339.79 1787.79,1340.48 1791.77,1341.15 1795.74,1341.81 1799.72,1342.47 1803.7,1343.11 1807.68,1343.75 1811.66,1344.38 1815.64,1344.99 1819.62,1345.6 1823.6,1346.21 1827.57,1346.8 1831.55,1347.38 1835.53,1347.96 1839.51,1348.53 1843.49,1349.09 1847.47,1349.65 1851.45,1350.19 1855.42,1350.73 1859.4,1351.27 1863.38,1351.79 1867.36,1352.31 1871.34,1352.83 1875.32,1353.33 1879.3,1353.84 1883.28,1354.33 1887.25,1354.82 1891.23,1355.3 1895.21,1355.78 1899.19,1356.25 1903.17,1356.71 1907.15,1357.17 1911.13,1357.63 1915.1,1358.07 1919.08,1358.52 1923.06,1358.96 1927.04,1359.39 1931.02,1359.82 1935,1360.24 1938.98,1360.66 1942.95,1361.07 1946.93,1361.48 1950.91,1361.89 1954.89,1362.29 1958.87,1362.68 1962.85,1363.07 1966.83,1363.46 1970.81,1363.84 1974.78,1364.22 1978.76,1364.6 1982.74,1364.97 1986.72,1365.33 1990.7,1365.7 1994.68,1366.06 1998.66,1366.41 2002.63,1366.76 2006.61,1367.11 2010.59,1367.45 2014.57,1367.8 2018.55,1368.13 2022.53,1368.47 2026.51,1368.8 2030.49,1369.12 2034.46,1369.45 2038.44,1369.77 2042.42,1370.09 2046.4,1370.4 2050.38,1370.71 2054.36,1371.02 2058.34,1371.33 2062.31,1371.63 2066.29,1371.93 2070.27,1372.22 2074.25,1372.52 2078.23,1372.81 2082.21,1373.1 2086.19,1373.38 2090.16,1373.66 2094.14,1373.94 2098.12,1374.22 2102.1,1374.5 2106.08,1374.77 2110.06,1375.04 2114.04,1375.31 2118.02,1375.57 2121.99,1375.83 2125.97,1376.09 2129.95,1376.35 2133.93,1376.61 2137.91,1376.86 2141.89,1377.11 2145.87,1377.36 2149.84,1377.61 2153.82,1377.85 2157.8,1378.09 2161.78,1378.33 2165.76,1378.57 2169.74,1378.81 2173.72,1379.04 2177.7,1379.27 2181.67,1379.5 2185.65,1379.73 2189.63,1379.96 2193.61,1380.18 2197.59,1380.41 2201.57,1380.63 2205.55,1380.85 2209.52,1381.06 2213.5,1381.28 2217.48,1381.49 2221.46,1381.7 2225.44,1381.91 2229.42,1382.12 2233.4,1382.33 2237.38,1382.53 2241.35,1382.74 2245.33,1382.94 2249.31,1383.14 2253.29,1383.34 2257.27,1383.53 2261.25,1383.73 2265.23,1383.92 2269.2,1384.11 2273.18,1384.3 2277.16,1384.49 2281.14,1384.68 2285.12,1384.87 2289.1,1385.05 2293.08,1385.24 2297.05,1385.42 2301.03,1385.6 2305.01,1385.78 2308.99,1385.96 2312.97,1386.13 2316.95,1386.31 2320.93,1386.48 2324.91,1386.66 2328.88,1386.83 2332.86,1387 2336.84,1387.17 2340.82,1387.33 2344.8,1387.5 2348.78,1387.67 2352.76,1387.83 "/>
</svg>
